%FSLAX23Y23*%
%MOMM*%
%AMPASTFTDEUX*
20,1,$5,$1+$3,$2-$4,$1-$3,$2+$4,0*
20,1,$5,$1+$3,$2+$4,$1-$3,$2-$4,0*%
%ADD10C,0.8*%
%ADD11C,0.7*%
%ADD12R,5.4X2.2*%
%ADD13R,2.3X2.3*%
%ADD14PASTFTDEUX,0X0X1.21X1.21X0.3*%
%ADD15C,2.3*%
%ADD16PASTFTDEUX,0X0X0.82X0.82X0.3*%
%ADD17R,2.4X2.4*%
%ADD18C,2.4*%
%ADD19PASTFTDEUX,0X0X0.85X0.85X0.3*%
%ADD20C,0.9*%
%ADD21C,0.4*%
%ADD22C,0.3*%
%ADD23R,5X1.8*%
%ADD24C,0.2*%
%ADD25C,0.1*%
%ADD26R,1.9X1.9*%
%ADD27C,1*%
%ADD28C,1.9*%
%ADD29R,1.7X1.3*%
%ADD30R,1X1.25*%
%ADD31R,1X1.3*%
%ADD32R,1.3X1*%
%ADD33R,2X2*%
%ADD34C,2*%
%ADD35R,1.25X1*%
%ADD36R,0.4X0.9*%
%ADD37R,2.2X0.7*%
%ADD38C,0.5*%
%ADD39C,0.05*%
%LPD*%
G54D24*
X30000Y41900D02*
X35300Y41900D01*
G54D24*
X30000Y3710D02*
X30000Y41900D01*
G54D24*
X30000Y3710D02*
X35300Y3710D01*
G54D24*
X35300Y-02190D02*
X35300Y47800D01*
G54D24*
X35300Y-02190D02*
X35790Y-02190D01*
G54D24*
X35790Y-02190D02*
X35800Y47800D01*
G54D24*
X35300Y47800D02*
X35800Y47800D01*
G54D24*
X35800Y40500D02*
X41700Y40500D01*
G54D24*
X41700Y5200D02*
X41700Y40500D01*
G54D24*
X35800Y5200D02*
X41700Y5200D01*
G54D25*
X28560Y40230D02*
X28560Y39580D01*
G54D25*
X28560Y39580D02*
X28440Y39450D01*
G54D25*
X28440Y39450D02*
X28320Y39450D01*
G54D25*
X28320Y39450D02*
X28200Y39580D01*
G54D25*
X28920Y40230D02*
X29280Y40230D01*
G54D25*
X29280Y40230D02*
X29040Y39450D01*
G54D24*
X1180Y920D02*
X1180Y44100D01*
G54D24*
X1180Y920D02*
X6900Y920D01*
G54D24*
X6900Y920D02*
X6900Y44740D01*
G54D24*
X1820Y44740D02*
X6900Y44740D01*
G54D24*
X1180Y44100D02*
X1820Y44740D01*
D24*
X1370Y45050D02*
X1370Y45070D01*
X1370Y45090D01*
X1370Y45120D01*
X1360Y45140D01*
X1360Y45160D01*
X1350Y45180D01*
X1350Y45200D01*
X1340Y45220D01*
X1330Y45240D01*
X1320Y45260D01*
X1310Y45280D01*
X1300Y45300D01*
X1290Y45320D01*
X1280Y45340D01*
X1270Y45350D01*
X1250Y45370D01*
X1240Y45390D01*
X1220Y45400D01*
X1210Y45420D01*
X1190Y45430D01*
X1170Y45450D01*
X1160Y45460D01*
X1140Y45470D01*
X1120Y45480D01*
X1100Y45490D01*
X1080Y45500D01*
X1060Y45510D01*
X1040Y45520D01*
X1020Y45530D01*
X1000Y45530D01*
X980Y45540D01*
X960Y45540D01*
X940Y45550D01*
X910Y45550D01*
X890Y45550D01*
X870Y45550D01*
X850Y45550D01*
X830Y45550D01*
X800Y45550D01*
X780Y45540D01*
X760Y45540D01*
X740Y45530D01*
X720Y45530D01*
X700Y45520D01*
X680Y45510D01*
X660Y45500D01*
X640Y45490D01*
X620Y45480D01*
X600Y45470D01*
X580Y45460D01*
X570Y45450D01*
X550Y45430D01*
X530Y45420D01*
X520Y45400D01*
X500Y45390D01*
X490Y45370D01*
X470Y45350D01*
X460Y45340D01*
X450Y45320D01*
X440Y45300D01*
X430Y45280D01*
X420Y45260D01*
X410Y45240D01*
X400Y45220D01*
X390Y45200D01*
X390Y45180D01*
X380Y45160D01*
X380Y45140D01*
X370Y45120D01*
X370Y45090D01*
X370Y45070D01*
X370Y45050D01*
X370Y45030D01*
X370Y45010D01*
X370Y44980D01*
X380Y44960D01*
X380Y44940D01*
X390Y44920D01*
X390Y44900D01*
X400Y44880D01*
X410Y44860D01*
X420Y44840D01*
X430Y44820D01*
X440Y44800D01*
X450Y44780D01*
X460Y44760D01*
X470Y44750D01*
X490Y44730D01*
X500Y44710D01*
X520Y44700D01*
X530Y44680D01*
X550Y44670D01*
X570Y44650D01*
X580Y44640D01*
X600Y44630D01*
X620Y44620D01*
X640Y44610D01*
X660Y44600D01*
X680Y44590D01*
X700Y44580D01*
X720Y44570D01*
X740Y44570D01*
X760Y44560D01*
X780Y44560D01*
X800Y44550D01*
X830Y44550D01*
X850Y44550D01*
X870Y44550D01*
X890Y44550D01*
X910Y44550D01*
X940Y44550D01*
X960Y44560D01*
X980Y44560D01*
X1000Y44570D01*
X1020Y44570D01*
X1040Y44580D01*
X1060Y44590D01*
X1080Y44600D01*
X1100Y44610D01*
X1120Y44620D01*
X1140Y44630D01*
X1160Y44640D01*
X1170Y44650D01*
X1190Y44670D01*
X1210Y44680D01*
X1220Y44700D01*
X1240Y44710D01*
X1250Y44730D01*
X1270Y44750D01*
X1280Y44760D01*
X1290Y44780D01*
X1300Y44800D01*
X1310Y44820D01*
X1320Y44840D01*
X1330Y44860D01*
X1340Y44880D01*
X1350Y44900D01*
X1350Y44920D01*
X1360Y44940D01*
X1360Y44960D01*
X1370Y44980D01*
X1370Y45010D01*
X1370Y45030D01*
X1370Y45050D01*
X1370Y45070D01*
G54D25*
X7500Y1650D02*
X7500Y1000D01*
G54D25*
X7500Y1000D02*
X7380Y870D01*
G54D25*
X7380Y870D02*
X7260Y870D01*
G54D25*
X7260Y870D02*
X7140Y1000D01*
G54D25*
X8220Y1520D02*
X8100Y1650D01*
G54D25*
X8100Y1650D02*
X7980Y1650D01*
G54D25*
X7980Y1650D02*
X7860Y1520D01*
G54D25*
X7860Y1520D02*
X7860Y1000D01*
G54D25*
X7860Y1000D02*
X7980Y870D01*
G54D25*
X7980Y870D02*
X8100Y870D01*
G54D25*
X8100Y870D02*
X8220Y1000D01*
G54D25*
X8220Y1000D02*
X8220Y1130D01*
G54D25*
X8220Y1130D02*
X8100Y1260D01*
G54D25*
X8100Y1260D02*
X7980Y1260D01*
G54D25*
X7980Y1260D02*
X7860Y1130D01*
G54D25*
X19540Y37100D02*
X21400Y37100D01*
G54D25*
X21400Y37100D02*
X21400Y42090D01*
G54D25*
X19540Y42090D02*
X21400Y42090D01*
G54D25*
X19540Y37100D02*
X19540Y42090D01*
G54D25*
X19550Y37360D02*
X21390Y37360D01*
G54D25*
X20320Y36510D02*
X20200Y36640D01*
G54D25*
X20200Y36640D02*
X19960Y36640D01*
G54D25*
X19960Y36640D02*
X19840Y36510D01*
G54D25*
X19840Y36510D02*
X19840Y35990D01*
G54D25*
X19840Y35990D02*
X19960Y35860D01*
G54D25*
X19960Y35860D02*
X20200Y35860D01*
G54D25*
X20200Y35860D02*
X20320Y35990D01*
G54D25*
X20800Y36380D02*
X21040Y36640D01*
G54D25*
X21040Y36640D02*
X21040Y35860D01*
G54D24*
X11550Y8050D02*
X14850Y8050D01*
G54D24*
X11550Y6470D02*
X11550Y8050D01*
G54D24*
X11550Y6470D02*
X14850Y6470D01*
G54D24*
X14850Y6470D02*
X14850Y8050D01*
G54D25*
X12320Y6010D02*
X12200Y6140D01*
G54D25*
X12200Y6140D02*
X11960Y6140D01*
G54D25*
X11960Y6140D02*
X11840Y6010D01*
G54D25*
X11840Y6010D02*
X11840Y5490D01*
G54D25*
X11840Y5490D02*
X11960Y5360D01*
G54D25*
X11960Y5360D02*
X12200Y5360D01*
G54D25*
X12200Y5360D02*
X12320Y5490D01*
G54D25*
X12680Y5880D02*
X12680Y6010D01*
G54D25*
X12680Y6010D02*
X12800Y6140D01*
G54D25*
X12800Y6140D02*
X12920Y6140D01*
G54D25*
X12920Y6140D02*
X13040Y6010D01*
G54D25*
X13040Y6010D02*
X13040Y5880D01*
G54D25*
X13040Y5880D02*
X12680Y5360D01*
G54D25*
X12680Y5360D02*
X13040Y5360D01*
G54D24*
X10650Y21930D02*
X10650Y25230D01*
G54D24*
X10650Y21930D02*
X12230Y21930D01*
G54D24*
X12230Y21930D02*
X12230Y25230D01*
G54D24*
X10650Y25230D02*
X12230Y25230D01*
G54D25*
X11320Y26010D02*
X11200Y26140D01*
G54D25*
X11200Y26140D02*
X10960Y26140D01*
G54D25*
X10960Y26140D02*
X10840Y26010D01*
G54D25*
X10840Y26010D02*
X10840Y25490D01*
G54D25*
X10840Y25490D02*
X10960Y25360D01*
G54D25*
X10960Y25360D02*
X11200Y25360D01*
G54D25*
X11200Y25360D02*
X11320Y25490D01*
G54D25*
X11680Y26010D02*
X11800Y26140D01*
G54D25*
X11800Y26140D02*
X11920Y26140D01*
G54D25*
X11920Y26140D02*
X12040Y26010D01*
G54D25*
X12040Y26010D02*
X12040Y25880D01*
G54D25*
X12040Y25880D02*
X11920Y25750D01*
G54D25*
X11920Y25750D02*
X12040Y25620D01*
G54D25*
X12040Y25620D02*
X12040Y25490D01*
G54D25*
X12040Y25490D02*
X11920Y25360D01*
G54D25*
X11920Y25360D02*
X11800Y25360D01*
G54D25*
X11800Y25360D02*
X11680Y25490D01*
G54D24*
X12170Y34240D02*
X18530Y34240D01*
G54D24*
X18530Y34240D02*
X18530Y39320D01*
G54D24*
X12170Y34240D02*
X12170Y39320D01*
G54D24*
X12170Y36150D02*
X13450Y36150D01*
G54D24*
X13450Y36150D02*
X13450Y42490D01*
G54D24*
X12170Y42490D02*
X13450Y42490D01*
G54D24*
X18530Y39320D02*
X18530Y44400D01*
G54D24*
X12170Y44400D02*
X18530Y44400D01*
G54D24*
X12170Y39320D02*
X12170Y44400D01*
G54D25*
X19210Y43700D02*
X19210Y43050D01*
G54D25*
X19210Y43050D02*
X19090Y42920D01*
G54D25*
X19090Y42920D02*
X18970Y42920D01*
G54D25*
X18970Y42920D02*
X18850Y43050D01*
G54D25*
X19930Y43700D02*
X19690Y43700D01*
G54D25*
X19690Y43700D02*
X19570Y43310D01*
G54D25*
X19570Y43310D02*
X19690Y43440D01*
G54D25*
X19690Y43440D02*
X19810Y43440D01*
G54D25*
X19810Y43440D02*
X19930Y43310D01*
G54D25*
X19930Y43310D02*
X19930Y43050D01*
G54D25*
X19930Y43050D02*
X19810Y42920D01*
G54D25*
X19810Y42920D02*
X19690Y42920D01*
G54D25*
X19690Y42920D02*
X19570Y43050D01*
G54D24*
X11900Y3780D02*
X19520Y3780D01*
G54D24*
X19520Y1240D02*
X19520Y3780D01*
G54D24*
X11900Y1240D02*
X19520Y1240D01*
G54D24*
X11900Y1240D02*
X11900Y3780D01*
G54D25*
X10950Y2740D02*
X10950Y2090D01*
G54D25*
X10950Y2090D02*
X10830Y1960D01*
G54D25*
X10830Y1960D02*
X10710Y1960D01*
G54D25*
X10710Y1960D02*
X10590Y2090D01*
G54D25*
X11430Y2480D02*
X11670Y2740D01*
G54D25*
X11670Y2740D02*
X11670Y1960D01*
G54D24*
X10730Y36800D02*
X10730Y44420D01*
G54D24*
X8190Y36800D02*
X10730Y36800D01*
G54D24*
X8190Y36800D02*
X8190Y44420D01*
G54D24*
X8190Y44420D02*
X10730Y44420D01*
G54D25*
X9360Y45280D02*
X9360Y44630D01*
G54D25*
X9360Y44630D02*
X9240Y44500D01*
G54D25*
X9240Y44500D02*
X9120Y44500D01*
G54D25*
X9120Y44500D02*
X9000Y44630D01*
G54D25*
X9720Y45020D02*
X9720Y45150D01*
G54D25*
X9720Y45150D02*
X9840Y45280D01*
G54D25*
X9840Y45280D02*
X9960Y45280D01*
G54D25*
X9960Y45280D02*
X10080Y45150D01*
G54D25*
X10080Y45150D02*
X10080Y45020D01*
G54D25*
X10080Y45020D02*
X9720Y44500D01*
G54D25*
X9720Y44500D02*
X10080Y44500D01*
G54D24*
X10730Y26640D02*
X10730Y34260D01*
G54D24*
X8190Y26640D02*
X10730Y26640D01*
G54D24*
X8190Y26640D02*
X8190Y34260D01*
G54D24*
X8190Y34260D02*
X10730Y34260D01*
G54D25*
X9360Y35120D02*
X9360Y34470D01*
G54D25*
X9360Y34470D02*
X9240Y34340D01*
G54D25*
X9240Y34340D02*
X9120Y34340D01*
G54D25*
X9120Y34340D02*
X9000Y34470D01*
G54D25*
X9720Y34990D02*
X9840Y35120D01*
G54D25*
X9840Y35120D02*
X9960Y35120D01*
G54D25*
X9960Y35120D02*
X10080Y34990D01*
G54D25*
X10080Y34990D02*
X10080Y34860D01*
G54D25*
X10080Y34860D02*
X9960Y34730D01*
G54D25*
X9960Y34730D02*
X10080Y34600D01*
G54D25*
X10080Y34600D02*
X10080Y34470D01*
G54D25*
X10080Y34470D02*
X9960Y34340D01*
G54D25*
X9960Y34340D02*
X9840Y34340D01*
G54D25*
X9840Y34340D02*
X9720Y34470D01*
G54D24*
X23160Y24800D02*
X23160Y32420D01*
G54D24*
X18080Y24800D02*
X23160Y24800D01*
G54D24*
X18080Y24800D02*
X18080Y32420D01*
G54D24*
X18080Y32420D02*
X23160Y32420D01*
D24*
X17520Y32520D02*
X17530Y32520D01*
X17550Y32520D01*
X17560Y32520D01*
X17570Y32520D01*
X17580Y32530D01*
X17600Y32530D01*
X17610Y32530D01*
X17620Y32540D01*
X17630Y32540D01*
X17650Y32550D01*
X17660Y32550D01*
X17670Y32560D01*
X17680Y32570D01*
X17690Y32570D01*
X17700Y32580D01*
X17710Y32590D01*
X17720Y32600D01*
X17730Y32610D01*
X17740Y32620D01*
X17750Y32630D01*
X17760Y32640D01*
X17770Y32650D01*
X17770Y32660D01*
X17780Y32670D01*
X17790Y32680D01*
X17790Y32690D01*
X17800Y32710D01*
X17800Y32720D01*
X17810Y32730D01*
X17810Y32740D01*
X17810Y32760D01*
X17820Y32770D01*
X17820Y32780D01*
X17820Y32790D01*
X17820Y32810D01*
X17820Y32820D01*
X17820Y32830D01*
X17820Y32850D01*
X17820Y32860D01*
X17820Y32870D01*
X17810Y32880D01*
X17810Y32900D01*
X17810Y32910D01*
X17800Y32920D01*
X17800Y32930D01*
X17790Y32950D01*
X17790Y32960D01*
X17780Y32970D01*
X17770Y32980D01*
X17770Y32990D01*
X17760Y33000D01*
X17750Y33010D01*
X17740Y33020D01*
X17730Y33030D01*
X17720Y33040D01*
X17710Y33050D01*
X17700Y33060D01*
X17690Y33070D01*
X17680Y33070D01*
X17670Y33080D01*
X17660Y33090D01*
X17650Y33090D01*
X17630Y33100D01*
X17620Y33100D01*
X17610Y33110D01*
X17600Y33110D01*
X17580Y33110D01*
X17570Y33120D01*
X17560Y33120D01*
X17550Y33120D01*
X17530Y33120D01*
X17520Y33120D01*
X17510Y33120D01*
X17490Y33120D01*
X17480Y33120D01*
X17470Y33120D01*
X17460Y33110D01*
X17440Y33110D01*
X17430Y33110D01*
X17420Y33100D01*
X17410Y33100D01*
X17390Y33090D01*
X17380Y33090D01*
X17370Y33080D01*
X17360Y33070D01*
X17350Y33070D01*
X17340Y33060D01*
X17330Y33050D01*
X17320Y33040D01*
X17310Y33030D01*
X17300Y33020D01*
X17290Y33010D01*
X17280Y33000D01*
X17270Y32990D01*
X17270Y32980D01*
X17260Y32970D01*
X17250Y32960D01*
X17250Y32950D01*
X17240Y32930D01*
X17240Y32920D01*
X17230Y32910D01*
X17230Y32900D01*
X17230Y32880D01*
X17220Y32870D01*
X17220Y32860D01*
X17220Y32850D01*
X17220Y32830D01*
X17220Y32820D01*
X17220Y32810D01*
X17220Y32790D01*
X17220Y32780D01*
X17220Y32770D01*
X17230Y32760D01*
X17230Y32740D01*
X17230Y32730D01*
X17240Y32720D01*
X17240Y32710D01*
X17250Y32690D01*
X17250Y32680D01*
X17260Y32670D01*
X17270Y32660D01*
X17270Y32650D01*
X17280Y32640D01*
X17290Y32630D01*
X17300Y32620D01*
X17310Y32610D01*
X17320Y32600D01*
X17330Y32590D01*
X17340Y32580D01*
X17350Y32570D01*
X17360Y32570D01*
X17370Y32560D01*
X17380Y32550D01*
X17390Y32550D01*
X17410Y32540D01*
X17420Y32540D01*
X17430Y32530D01*
X17440Y32530D01*
X17460Y32530D01*
X17470Y32520D01*
X17480Y32520D01*
X17490Y32520D01*
X17510Y32520D01*
X17520Y32520D01*
G54D25*
X18850Y33540D02*
X18850Y32890D01*
G54D25*
X18850Y32890D02*
X18740Y32760D01*
G54D25*
X18740Y32760D02*
X18630Y32760D01*
G54D25*
X18630Y32760D02*
X18520Y32890D01*
G54D25*
X19510Y32760D02*
X19510Y33540D01*
G54D25*
X19510Y33540D02*
X19180Y33020D01*
G54D25*
X19180Y33020D02*
X19620Y33020D01*
G54D24*
X8200Y21930D02*
X8200Y25230D01*
G54D24*
X8200Y21930D02*
X9780Y21930D01*
G54D24*
X9780Y21930D02*
X9780Y25230D01*
G54D24*
X8200Y25230D02*
X9780Y25230D01*
G54D25*
X8440Y20460D02*
X8440Y21240D01*
G54D25*
X8440Y21240D02*
X8800Y21240D01*
G54D25*
X8800Y21240D02*
X8920Y21110D01*
G54D25*
X8920Y21110D02*
X8920Y20980D01*
G54D25*
X8920Y20980D02*
X8800Y20850D01*
G54D25*
X8800Y20850D02*
X8440Y20850D01*
G54D25*
X8680Y20850D02*
X8920Y20460D01*
G54D25*
X9400Y20980D02*
X9640Y21240D01*
G54D25*
X9640Y21240D02*
X9640Y20460D01*
G54D24*
X18770Y10620D02*
X22070Y10620D01*
G54D24*
X22070Y10620D02*
X22070Y12200D01*
G54D24*
X18770Y12200D02*
X22070Y12200D01*
G54D24*
X18770Y10620D02*
X18770Y12200D01*
G54D25*
X19740Y12360D02*
X19740Y13140D01*
G54D25*
X19740Y13140D02*
X20100Y13140D01*
G54D25*
X20100Y13140D02*
X20220Y13010D01*
G54D25*
X20220Y13010D02*
X20220Y12880D01*
G54D25*
X20220Y12880D02*
X20100Y12750D01*
G54D25*
X20100Y12750D02*
X19740Y12750D01*
G54D25*
X19980Y12750D02*
X20220Y12360D01*
G54D25*
X20580Y12880D02*
X20580Y13010D01*
G54D25*
X20580Y13010D02*
X20700Y13140D01*
G54D25*
X20700Y13140D02*
X20820Y13140D01*
G54D25*
X20820Y13140D02*
X20940Y13010D01*
G54D25*
X20940Y13010D02*
X20940Y12880D01*
G54D25*
X20940Y12880D02*
X20580Y12360D01*
G54D25*
X20580Y12360D02*
X20940Y12360D01*
G54D24*
X11280Y30730D02*
X14580Y30730D01*
G54D24*
X14580Y30730D02*
X14580Y32310D01*
G54D24*
X11280Y32310D02*
X14580Y32310D01*
G54D24*
X11280Y30730D02*
X11280Y32310D01*
G54D25*
X12440Y32560D02*
X12440Y33340D01*
G54D25*
X12440Y33340D02*
X12800Y33340D01*
G54D25*
X12800Y33340D02*
X12920Y33210D01*
G54D25*
X12920Y33210D02*
X12920Y33080D01*
G54D25*
X12920Y33080D02*
X12800Y32950D01*
G54D25*
X12800Y32950D02*
X12440Y32950D01*
G54D25*
X12680Y32950D02*
X12920Y32560D01*
G54D25*
X13280Y33210D02*
X13400Y33340D01*
G54D25*
X13400Y33340D02*
X13520Y33340D01*
G54D25*
X13520Y33340D02*
X13640Y33210D01*
G54D25*
X13640Y33210D02*
X13640Y33080D01*
G54D25*
X13640Y33080D02*
X13520Y32950D01*
G54D25*
X13520Y32950D02*
X13640Y32820D01*
G54D25*
X13640Y32820D02*
X13640Y32690D01*
G54D25*
X13640Y32690D02*
X13520Y32560D01*
G54D25*
X13520Y32560D02*
X13400Y32560D01*
G54D25*
X13400Y32560D02*
X13280Y32690D01*
G54D24*
X15480Y26710D02*
X15480Y30010D01*
G54D24*
X15480Y26710D02*
X17060Y26710D01*
G54D24*
X17060Y26710D02*
X17060Y30010D01*
G54D24*
X15480Y30010D02*
X17060Y30010D01*
G54D25*
X15630Y30160D02*
X15630Y30940D01*
G54D25*
X15630Y30940D02*
X15960Y30940D01*
G54D25*
X15960Y30940D02*
X16070Y30810D01*
G54D25*
X16070Y30810D02*
X16070Y30680D01*
G54D25*
X16070Y30680D02*
X15960Y30550D01*
G54D25*
X15960Y30550D02*
X15630Y30550D01*
G54D25*
X15850Y30550D02*
X16070Y30160D01*
G54D25*
X16730Y30160D02*
X16730Y30940D01*
G54D25*
X16730Y30940D02*
X16400Y30420D01*
G54D25*
X16400Y30420D02*
X16840Y30420D01*
G54D24*
X18790Y9660D02*
X22090Y9660D01*
G54D24*
X18790Y8080D02*
X18790Y9660D01*
G54D24*
X18790Y8080D02*
X22090Y8080D01*
G54D24*
X22090Y8080D02*
X22090Y9660D01*
G54D25*
X20140Y6860D02*
X20140Y7640D01*
G54D25*
X20140Y7640D02*
X20500Y7640D01*
G54D25*
X20500Y7640D02*
X20620Y7510D01*
G54D25*
X20620Y7510D02*
X20620Y7380D01*
G54D25*
X20620Y7380D02*
X20500Y7250D01*
G54D25*
X20500Y7250D02*
X20140Y7250D01*
G54D25*
X20380Y7250D02*
X20620Y6860D01*
G54D25*
X21340Y7640D02*
X21100Y7640D01*
G54D25*
X21100Y7640D02*
X20980Y7250D01*
G54D25*
X20980Y7250D02*
X21100Y7380D01*
G54D25*
X21100Y7380D02*
X21220Y7380D01*
G54D25*
X21220Y7380D02*
X21340Y7250D01*
G54D25*
X21340Y7250D02*
X21340Y6990D01*
G54D25*
X21340Y6990D02*
X21220Y6860D01*
G54D25*
X21220Y6860D02*
X21100Y6860D01*
G54D25*
X21100Y6860D02*
X20980Y6990D01*
G54D24*
X15050Y17880D02*
X18350Y17880D01*
G54D24*
X18350Y17880D02*
X18350Y19460D01*
G54D24*
X15050Y19460D02*
X18350Y19460D01*
G54D24*
X15050Y17880D02*
X15050Y19460D01*
G54D25*
X16140Y19560D02*
X16140Y20340D01*
G54D25*
X16140Y20340D02*
X16500Y20340D01*
G54D25*
X16500Y20340D02*
X16620Y20210D01*
G54D25*
X16620Y20210D02*
X16620Y20080D01*
G54D25*
X16620Y20080D02*
X16500Y19950D01*
G54D25*
X16500Y19950D02*
X16140Y19950D01*
G54D25*
X16380Y19950D02*
X16620Y19560D01*
G54D25*
X17340Y20210D02*
X17220Y20340D01*
G54D25*
X17220Y20340D02*
X17100Y20340D01*
G54D25*
X17100Y20340D02*
X16980Y20210D01*
G54D25*
X16980Y20210D02*
X16980Y19690D01*
G54D25*
X16980Y19690D02*
X17100Y19560D01*
G54D25*
X17100Y19560D02*
X17220Y19560D01*
G54D25*
X17220Y19560D02*
X17340Y19690D01*
G54D25*
X17340Y19690D02*
X17340Y19820D01*
G54D25*
X17340Y19820D02*
X17220Y19950D01*
G54D25*
X17220Y19950D02*
X17100Y19950D01*
G54D25*
X17100Y19950D02*
X16980Y19820D01*
G54D24*
X22090Y35460D02*
X22090Y38760D01*
G54D24*
X22090Y35460D02*
X23670Y35460D01*
G54D24*
X23670Y35460D02*
X23670Y38760D01*
G54D24*
X22090Y38760D02*
X23670Y38760D01*
G54D25*
X22140Y38960D02*
X22140Y39740D01*
G54D25*
X22140Y39740D02*
X22500Y39740D01*
G54D25*
X22500Y39740D02*
X22620Y39610D01*
G54D25*
X22620Y39610D02*
X22620Y39480D01*
G54D25*
X22620Y39480D02*
X22500Y39350D01*
G54D25*
X22500Y39350D02*
X22140Y39350D01*
G54D25*
X22380Y39350D02*
X22620Y38960D01*
G54D25*
X23100Y39740D02*
X22980Y39610D01*
G54D25*
X22980Y39610D02*
X22980Y39480D01*
G54D25*
X22980Y39480D02*
X23100Y39350D01*
G54D25*
X23100Y39350D02*
X23220Y39350D01*
G54D25*
X23220Y39350D02*
X23340Y39480D01*
G54D25*
X23340Y39480D02*
X23340Y39610D01*
G54D25*
X23340Y39610D02*
X23220Y39740D01*
G54D25*
X23220Y39740D02*
X23100Y39740D01*
G54D25*
X23100Y39350D02*
X22980Y39220D01*
G54D25*
X22980Y39220D02*
X22980Y39090D01*
G54D25*
X22980Y39090D02*
X23100Y38960D01*
G54D25*
X23100Y38960D02*
X23220Y38960D01*
G54D25*
X23220Y38960D02*
X23340Y39090D01*
G54D25*
X23340Y39090D02*
X23340Y39220D01*
G54D25*
X23340Y39220D02*
X23220Y39350D01*
G54D24*
X7450Y13460D02*
X10750Y13460D01*
G54D24*
X7450Y11880D02*
X7450Y13460D01*
G54D24*
X7450Y11880D02*
X10750Y11880D01*
G54D24*
X10750Y11880D02*
X10750Y13460D01*
G54D25*
X7420Y13700D02*
X7420Y14480D01*
G54D25*
X7420Y14480D02*
X7780Y14480D01*
G54D25*
X7780Y14480D02*
X7900Y14350D01*
G54D25*
X7900Y14350D02*
X7900Y14220D01*
G54D25*
X7900Y14220D02*
X7780Y14090D01*
G54D25*
X7780Y14090D02*
X7420Y14090D01*
G54D25*
X7660Y14090D02*
X7900Y13700D01*
G54D25*
X8260Y13830D02*
X8380Y13700D01*
G54D25*
X8380Y13700D02*
X8500Y13700D01*
G54D25*
X8500Y13700D02*
X8620Y13830D01*
G54D25*
X8620Y13830D02*
X8620Y14350D01*
G54D25*
X8620Y14350D02*
X8500Y14480D01*
G54D25*
X8500Y14480D02*
X8380Y14480D01*
G54D25*
X8380Y14480D02*
X8260Y14350D01*
G54D25*
X8260Y14350D02*
X8260Y14220D01*
G54D25*
X8260Y14220D02*
X8380Y14090D01*
G54D25*
X8380Y14090D02*
X8500Y14090D01*
G54D25*
X8500Y14090D02*
X8620Y14220D01*
G54D24*
X7450Y10920D02*
X10750Y10920D01*
G54D24*
X7450Y9340D02*
X7450Y10920D01*
G54D24*
X7450Y9340D02*
X10750Y9340D01*
G54D24*
X10750Y9340D02*
X10750Y10920D01*
G54D25*
X7420Y10850D02*
X7420Y11630D01*
G54D25*
X7420Y11630D02*
X7780Y11630D01*
G54D25*
X7780Y11630D02*
X7900Y11500D01*
G54D25*
X7900Y11500D02*
X7900Y11370D01*
G54D25*
X7900Y11370D02*
X7780Y11240D01*
G54D25*
X7780Y11240D02*
X7420Y11240D01*
G54D25*
X7660Y11240D02*
X7900Y10850D01*
G54D25*
X8380Y11370D02*
X8620Y11630D01*
G54D25*
X8620Y11630D02*
X8620Y10850D01*
G54D25*
X8980Y11500D02*
X8980Y10980D01*
G54D25*
X8980Y10980D02*
X9100Y10850D01*
G54D25*
X9100Y10850D02*
X9220Y10850D01*
G54D25*
X9220Y10850D02*
X9340Y10980D01*
G54D25*
X9340Y10980D02*
X9340Y11500D01*
G54D25*
X9340Y11500D02*
X9220Y11630D01*
G54D25*
X9220Y11630D02*
X9100Y11630D01*
G54D25*
X9100Y11630D02*
X8980Y11500D01*
G54D24*
X7450Y8380D02*
X10750Y8380D01*
G54D24*
X7450Y6800D02*
X7450Y8380D01*
G54D24*
X7450Y6800D02*
X10750Y6800D01*
G54D24*
X10750Y6800D02*
X10750Y8380D01*
G54D25*
X7420Y8310D02*
X7420Y9090D01*
G54D25*
X7420Y9090D02*
X7780Y9090D01*
G54D25*
X7780Y9090D02*
X7900Y8960D01*
G54D25*
X7900Y8960D02*
X7900Y8830D01*
G54D25*
X7900Y8830D02*
X7780Y8700D01*
G54D25*
X7780Y8700D02*
X7420Y8700D01*
G54D25*
X7660Y8700D02*
X7900Y8310D01*
G54D25*
X8380Y8830D02*
X8620Y9090D01*
G54D25*
X8620Y9090D02*
X8620Y8310D01*
G54D25*
X9100Y8830D02*
X9340Y9090D01*
G54D25*
X9340Y9090D02*
X9340Y8310D01*
G54D25*
X12810Y21520D02*
X15690Y21520D01*
G54D25*
X15690Y21520D02*
X15690Y24070D01*
G54D25*
X12810Y24070D02*
X15690Y24070D01*
G54D25*
X12810Y21520D02*
X12810Y24070D01*
D24*
X12490Y21390D02*
X12490Y21390D01*
X12480Y21390D01*
X12480Y21390D01*
X12470Y21390D01*
X12470Y21390D01*
X12460Y21390D01*
X12460Y21390D01*
X12460Y21380D01*
X12450Y21380D01*
X12450Y21380D01*
X12440Y21380D01*
X12440Y21380D01*
X12440Y21370D01*
X12430Y21370D01*
X12430Y21370D01*
X12430Y21370D01*
X12420Y21360D01*
X12420Y21360D01*
X12420Y21360D01*
X12410Y21350D01*
X12410Y21350D01*
X12410Y21350D01*
X12410Y21340D01*
X12400Y21340D01*
X12400Y21340D01*
X12400Y21330D01*
X12400Y21330D01*
X12400Y21320D01*
X12390Y21320D01*
X12390Y21320D01*
X12390Y21310D01*
X12390Y21310D01*
X12390Y21300D01*
X12390Y21300D01*
X12390Y21290D01*
X12390Y21290D01*
X12390Y21290D01*
X12390Y21280D01*
X12390Y21280D01*
X12390Y21270D01*
X12390Y21270D01*
X12390Y21260D01*
X12390Y21260D01*
X12400Y21260D01*
X12400Y21250D01*
X12400Y21250D01*
X12400Y21240D01*
X12400Y21240D01*
X12410Y21240D01*
X12410Y21230D01*
X12410Y21230D01*
X12410Y21230D01*
X12420Y21220D01*
X12420Y21220D01*
X12420Y21220D01*
X12430Y21210D01*
X12430Y21210D01*
X12430Y21210D01*
X12440Y21210D01*
X12440Y21200D01*
X12440Y21200D01*
X12450Y21200D01*
X12450Y21200D01*
X12460Y21200D01*
X12460Y21190D01*
X12460Y21190D01*
X12470Y21190D01*
X12470Y21190D01*
X12480Y21190D01*
X12480Y21190D01*
X12490Y21190D01*
X12490Y21190D01*
X12490Y21190D01*
X12500Y21190D01*
X12500Y21190D01*
X12510Y21190D01*
X12510Y21190D01*
X12520Y21190D01*
X12520Y21190D01*
X12520Y21200D01*
X12530Y21200D01*
X12530Y21200D01*
X12540Y21200D01*
X12540Y21200D01*
X12540Y21210D01*
X12550Y21210D01*
X12550Y21210D01*
X12550Y21210D01*
X12560Y21220D01*
X12560Y21220D01*
X12560Y21220D01*
X12570Y21230D01*
X12570Y21230D01*
X12570Y21230D01*
X12570Y21240D01*
X12580Y21240D01*
X12580Y21240D01*
X12580Y21250D01*
X12580Y21250D01*
X12580Y21260D01*
X12590Y21260D01*
X12590Y21260D01*
X12590Y21270D01*
X12590Y21270D01*
X12590Y21280D01*
X12590Y21280D01*
X12590Y21290D01*
X12590Y21290D01*
X12590Y21290D01*
X12590Y21300D01*
X12590Y21300D01*
X12590Y21310D01*
X12590Y21310D01*
X12590Y21320D01*
X12590Y21320D01*
X12580Y21320D01*
X12580Y21330D01*
X12580Y21330D01*
X12580Y21340D01*
X12580Y21340D01*
X12570Y21340D01*
X12570Y21350D01*
X12570Y21350D01*
X12570Y21350D01*
X12560Y21360D01*
X12560Y21360D01*
X12560Y21360D01*
X12550Y21370D01*
X12550Y21370D01*
X12550Y21370D01*
X12540Y21370D01*
X12540Y21380D01*
X12540Y21380D01*
X12530Y21380D01*
X12530Y21380D01*
X12520Y21380D01*
X12520Y21390D01*
X12520Y21390D01*
X12510Y21390D01*
X12510Y21390D01*
X12500Y21390D01*
X12500Y21390D01*
X12490Y21390D01*
X12490Y21390D01*
X12490Y21390D01*
G54D25*
X11030Y20640D02*
X11030Y19990D01*
G54D25*
X11030Y19990D02*
X11140Y19860D01*
G54D25*
X11140Y19860D02*
X11470Y19860D01*
G54D25*
X11470Y19860D02*
X11580Y19990D01*
G54D25*
X11580Y19990D02*
X11580Y20640D01*
G54D25*
X12020Y20380D02*
X12240Y20640D01*
G54D25*
X12240Y20640D02*
X12240Y19860D01*
G54D24*
X16160Y8380D02*
X16160Y17060D01*
G54D24*
X13440Y17060D02*
X16160Y17060D01*
G54D24*
X13440Y8380D02*
X13440Y17060D01*
G54D24*
X13440Y8380D02*
X16160Y8380D01*
D24*
X15180Y8510D02*
X15180Y8520D01*
X15180Y8540D01*
X15180Y8550D01*
X15180Y8570D01*
X15170Y8580D01*
X15170Y8590D01*
X15170Y8610D01*
X15160Y8620D01*
X15160Y8630D01*
X15150Y8650D01*
X15140Y8660D01*
X15140Y8670D01*
X15130Y8680D01*
X15120Y8690D01*
X15110Y8700D01*
X15110Y8720D01*
X15100Y8730D01*
X15090Y8740D01*
X15080Y8750D01*
X15070Y8760D01*
X15050Y8760D01*
X15040Y8770D01*
X15030Y8780D01*
X15020Y8790D01*
X15010Y8790D01*
X15000Y8800D01*
X14980Y8810D01*
X14970Y8810D01*
X14960Y8820D01*
X14940Y8820D01*
X14930Y8820D01*
X14920Y8830D01*
X14900Y8830D01*
X14890Y8830D01*
X14870Y8830D01*
X14860Y8830D01*
X14850Y8830D01*
X14830Y8830D01*
X14820Y8830D01*
X14800Y8830D01*
X14790Y8820D01*
X14780Y8820D01*
X14760Y8820D01*
X14750Y8810D01*
X14740Y8810D01*
X14720Y8800D01*
X14710Y8790D01*
X14700Y8790D01*
X14690Y8780D01*
X14680Y8770D01*
X14670Y8760D01*
X14650Y8760D01*
X14640Y8750D01*
X14630Y8740D01*
X14620Y8730D01*
X14610Y8720D01*
X14610Y8700D01*
X14600Y8690D01*
X14590Y8680D01*
X14580Y8670D01*
X14580Y8660D01*
X14570Y8650D01*
X14560Y8630D01*
X14560Y8620D01*
X14550Y8610D01*
X14550Y8590D01*
X14550Y8580D01*
X14540Y8570D01*
X14540Y8550D01*
X14540Y8540D01*
X14540Y8520D01*
X14540Y8510D01*
X14540Y8500D01*
G54D25*
X16430Y7940D02*
X16430Y7290D01*
G54D25*
X16430Y7290D02*
X16540Y7160D01*
G54D25*
X16540Y7160D02*
X16870Y7160D01*
G54D25*
X16870Y7160D02*
X16980Y7290D01*
G54D25*
X16980Y7290D02*
X16980Y7940D01*
G54D25*
X17310Y7680D02*
X17310Y7810D01*
G54D25*
X17310Y7810D02*
X17420Y7940D01*
G54D25*
X17420Y7940D02*
X17530Y7940D01*
G54D25*
X17530Y7940D02*
X17640Y7810D01*
G54D25*
X17640Y7810D02*
X17640Y7680D01*
G54D25*
X17640Y7680D02*
X17310Y7160D01*
G54D25*
X17310Y7160D02*
X17640Y7160D01*
G54D39*
X0Y45720D02*
X0Y0D01*
G54D39*
X0Y0D02*
X30160Y0D01*
G54D39*
X30160Y45720D02*
X30160Y0D01*
G54D39*
X0Y45720D02*
X30160Y45720D01*
G54D25*
X20070Y5510D02*
X20210Y6050D01*
G54D25*
X20210Y6050D02*
X20350Y5510D01*
G54D25*
X20140Y5780D02*
X20280Y5780D01*
G54D25*
X20560Y5510D02*
X20560Y6050D01*
G54D25*
X20560Y6050D02*
X20770Y5510D01*
G54D25*
X20770Y5510D02*
X20980Y6050D01*
G54D25*
X20980Y6050D02*
X20980Y5510D01*
G54D25*
X21190Y6050D02*
X21190Y5510D01*
G54D25*
X21750Y5960D02*
X21680Y6050D01*
G54D25*
X21680Y6050D02*
X21470Y6050D01*
G54D25*
X21470Y6050D02*
X21400Y5960D01*
G54D25*
X21400Y5960D02*
X21400Y5600D01*
G54D25*
X21400Y5600D02*
X21470Y5510D01*
G54D25*
X21470Y5510D02*
X21680Y5510D01*
G54D25*
X21680Y5510D02*
X21750Y5600D01*
G54D25*
X21750Y5600D02*
X21750Y5780D01*
G54D25*
X21750Y5780D02*
X21610Y5780D01*
G54D25*
X22030Y5510D02*
X22170Y6050D01*
G54D25*
X22170Y6050D02*
X22310Y5510D01*
G54D25*
X22100Y5780D02*
X22240Y5780D01*
G54D25*
X22660Y6050D02*
X22520Y5510D01*
G54D25*
X20240Y4150D02*
X20240Y3700D01*
G54D25*
X20240Y3700D02*
X20180Y3610D01*
G54D25*
X20180Y3610D02*
X20120Y3610D01*
G54D25*
X20120Y3610D02*
X20060Y3700D01*
G54D25*
X20480Y3970D02*
X20600Y4150D01*
G54D25*
X20600Y4150D02*
X20600Y3610D01*
G54D25*
X21260Y3970D02*
X21380Y4150D01*
G54D25*
X21380Y4150D02*
X21380Y3610D01*
G54D25*
X21560Y3880D02*
X21740Y3880D01*
G54D25*
X21920Y3970D02*
X21920Y4060D01*
G54D25*
X21920Y4060D02*
X21980Y4150D01*
G54D25*
X21980Y4150D02*
X22040Y4150D01*
G54D25*
X22040Y4150D02*
X22100Y4060D01*
G54D25*
X22100Y4060D02*
X22100Y3970D01*
G54D25*
X22100Y3970D02*
X21920Y3610D01*
G54D25*
X21920Y3610D02*
X22100Y3610D01*
G54D25*
X22760Y4150D02*
X22700Y4060D01*
G54D25*
X22700Y4060D02*
X22700Y3700D01*
G54D25*
X22700Y3700D02*
X22760Y3610D01*
G54D25*
X22760Y3610D02*
X22940Y3610D01*
G54D25*
X22940Y3610D02*
X23000Y3700D01*
G54D25*
X23000Y3700D02*
X23000Y4060D01*
G54D25*
X23000Y4060D02*
X22940Y4150D01*
G54D25*
X22940Y4150D02*
X22760Y4150D01*
G54D25*
X23180Y3610D02*
X23180Y4150D01*
G54D25*
X23180Y4150D02*
X23420Y3610D01*
G54D25*
X23420Y3610D02*
X23420Y4150D01*
G54D25*
X20240Y3200D02*
X20240Y2750D01*
G54D25*
X20240Y2750D02*
X20180Y2660D01*
G54D25*
X20180Y2660D02*
X20120Y2660D01*
G54D25*
X20120Y2660D02*
X20060Y2750D01*
G54D25*
X20420Y3020D02*
X20420Y3110D01*
G54D25*
X20420Y3110D02*
X20480Y3200D01*
G54D25*
X20480Y3200D02*
X20540Y3200D01*
G54D25*
X20540Y3200D02*
X20600Y3110D01*
G54D25*
X20600Y3110D02*
X20600Y3020D01*
G54D25*
X20600Y3020D02*
X20420Y2660D01*
G54D25*
X20420Y2660D02*
X20600Y2660D01*
G54D25*
X21260Y3020D02*
X21380Y3200D01*
G54D25*
X21380Y3200D02*
X21380Y2660D01*
G54D25*
X21560Y2930D02*
X21740Y2930D01*
G54D25*
X21920Y3020D02*
X21920Y3110D01*
G54D25*
X21920Y3110D02*
X21980Y3200D01*
G54D25*
X21980Y3200D02*
X22040Y3200D01*
G54D25*
X22040Y3200D02*
X22100Y3110D01*
G54D25*
X22100Y3110D02*
X22100Y3020D01*
G54D25*
X22100Y3020D02*
X21920Y2660D01*
G54D25*
X21920Y2660D02*
X22100Y2660D01*
G54D25*
X22760Y3200D02*
X22700Y3110D01*
G54D25*
X22700Y3110D02*
X22700Y2750D01*
G54D25*
X22700Y2750D02*
X22760Y2660D01*
G54D25*
X22760Y2660D02*
X22940Y2660D01*
G54D25*
X22940Y2660D02*
X23000Y2750D01*
G54D25*
X23000Y2750D02*
X23000Y3110D01*
G54D25*
X23000Y3110D02*
X22940Y3200D01*
G54D25*
X22940Y3200D02*
X22760Y3200D01*
G54D25*
X23180Y2660D02*
X23180Y3200D01*
G54D25*
X23180Y3200D02*
X23420Y2660D01*
G54D25*
X23420Y2660D02*
X23420Y3200D01*
G54D25*
X20240Y2240D02*
X20240Y1790D01*
G54D25*
X20240Y1790D02*
X20180Y1700D01*
G54D25*
X20180Y1700D02*
X20120Y1700D01*
G54D25*
X20120Y1700D02*
X20060Y1790D01*
G54D25*
X20420Y2150D02*
X20480Y2240D01*
G54D25*
X20480Y2240D02*
X20540Y2240D01*
G54D25*
X20540Y2240D02*
X20600Y2150D01*
G54D25*
X20600Y2150D02*
X20600Y2060D01*
G54D25*
X20600Y2060D02*
X20540Y1970D01*
G54D25*
X20540Y1970D02*
X20600Y1880D01*
G54D25*
X20600Y1880D02*
X20600Y1790D01*
G54D25*
X20600Y1790D02*
X20540Y1700D01*
G54D25*
X20540Y1700D02*
X20480Y1700D01*
G54D25*
X20480Y1700D02*
X20420Y1790D01*
G54D25*
X21260Y2060D02*
X21380Y2240D01*
G54D25*
X21380Y2240D02*
X21380Y1700D01*
G54D25*
X21560Y1970D02*
X21740Y1970D01*
G54D25*
X21920Y2060D02*
X21920Y2150D01*
G54D25*
X21920Y2150D02*
X21980Y2240D01*
G54D25*
X21980Y2240D02*
X22040Y2240D01*
G54D25*
X22040Y2240D02*
X22100Y2150D01*
G54D25*
X22100Y2150D02*
X22100Y2060D01*
G54D25*
X22100Y2060D02*
X21920Y1700D01*
G54D25*
X21920Y1700D02*
X22100Y1700D01*
G54D25*
X22760Y2240D02*
X22700Y2150D01*
G54D25*
X22700Y2150D02*
X22700Y1790D01*
G54D25*
X22700Y1790D02*
X22760Y1700D01*
G54D25*
X22760Y1700D02*
X22940Y1700D01*
G54D25*
X22940Y1700D02*
X23000Y1790D01*
G54D25*
X23000Y1790D02*
X23000Y2150D01*
G54D25*
X23000Y2150D02*
X22940Y2240D01*
G54D25*
X22940Y2240D02*
X22760Y2240D01*
G54D25*
X23180Y1700D02*
X23180Y2240D01*
G54D25*
X23180Y2240D02*
X23420Y1700D01*
G54D25*
X23420Y1700D02*
X23420Y2240D01*
G54D25*
X24840Y5100D02*
X24840Y4560D01*
G54D25*
X25080Y5100D02*
X25080Y4560D01*
G54D25*
X25080Y5100D02*
X25320Y5100D01*
G54D25*
X25320Y5100D02*
X25400Y5010D01*
G54D25*
X25400Y5010D02*
X25400Y4920D01*
G54D25*
X25400Y4920D02*
X25320Y4830D01*
G54D25*
X25320Y4830D02*
X25080Y4830D01*
G54D25*
X25320Y4830D02*
X25400Y4740D01*
G54D25*
X25400Y4740D02*
X25400Y4650D01*
G54D25*
X25400Y4650D02*
X25320Y4560D01*
G54D25*
X25320Y4560D02*
X25080Y4560D01*
G54D25*
X25640Y4560D02*
X25640Y5100D01*
G54D25*
X25640Y5100D02*
X25880Y4560D01*
G54D25*
X25880Y4560D02*
X26120Y5100D01*
G54D25*
X26120Y5100D02*
X26120Y4560D01*
G54D25*
X26520Y5100D02*
X26360Y4560D01*
G54D25*
X26760Y4560D02*
X26760Y5100D01*
G54D25*
X26760Y5100D02*
X27000Y5100D01*
G54D25*
X27000Y5100D02*
X27080Y5010D01*
G54D25*
X27080Y5010D02*
X27080Y4920D01*
G54D25*
X27080Y4920D02*
X27000Y4830D01*
G54D25*
X27000Y4830D02*
X26760Y4830D01*
G54D25*
X27640Y5010D02*
X27560Y5100D01*
G54D25*
X27560Y5100D02*
X27400Y5100D01*
G54D25*
X27400Y5100D02*
X27320Y5010D01*
G54D25*
X27320Y5010D02*
X27320Y4650D01*
G54D25*
X27320Y4650D02*
X27400Y4560D01*
G54D25*
X27400Y4560D02*
X27560Y4560D01*
G54D25*
X27560Y4560D02*
X27640Y4650D01*
G54D25*
X25000Y4150D02*
X25000Y3700D01*
G54D25*
X25000Y3700D02*
X24940Y3610D01*
G54D25*
X24940Y3610D02*
X24880Y3610D01*
G54D25*
X24880Y3610D02*
X24820Y3700D01*
G54D25*
X25240Y3970D02*
X25360Y4150D01*
G54D25*
X25360Y4150D02*
X25360Y3610D01*
G54D25*
X25960Y3970D02*
X25960Y4060D01*
G54D25*
X25960Y4060D02*
X26020Y4150D01*
G54D25*
X26020Y4150D02*
X26080Y4150D01*
G54D25*
X26080Y4150D02*
X26140Y4060D01*
G54D25*
X26140Y4060D02*
X26140Y3970D01*
G54D25*
X26140Y3970D02*
X25960Y3610D01*
G54D25*
X25960Y3610D02*
X26140Y3610D01*
G54D25*
X26320Y3880D02*
X26500Y3880D01*
G54D25*
X26680Y4060D02*
X26740Y4150D01*
G54D25*
X26740Y4150D02*
X26800Y4150D01*
G54D25*
X26800Y4150D02*
X26860Y4060D01*
G54D25*
X26860Y4060D02*
X26860Y3970D01*
G54D25*
X26860Y3970D02*
X26800Y3880D01*
G54D25*
X26800Y3880D02*
X26860Y3790D01*
G54D25*
X26860Y3790D02*
X26860Y3700D01*
G54D25*
X26860Y3700D02*
X26800Y3610D01*
G54D25*
X26800Y3610D02*
X26740Y3610D01*
G54D25*
X26740Y3610D02*
X26680Y3700D01*
G54D25*
X27520Y4150D02*
X27460Y4060D01*
G54D25*
X27460Y4060D02*
X27460Y3700D01*
G54D25*
X27460Y3700D02*
X27520Y3610D01*
G54D25*
X27520Y3610D02*
X27700Y3610D01*
G54D25*
X27700Y3610D02*
X27760Y3700D01*
G54D25*
X27760Y3700D02*
X27760Y4060D01*
G54D25*
X27760Y4060D02*
X27700Y4150D01*
G54D25*
X27700Y4150D02*
X27520Y4150D01*
G54D25*
X27940Y3610D02*
X27940Y4150D01*
G54D25*
X27940Y4150D02*
X28180Y3610D01*
G54D25*
X28180Y3610D02*
X28180Y4150D01*
G54D25*
X25000Y3200D02*
X25000Y2750D01*
G54D25*
X25000Y2750D02*
X24940Y2660D01*
G54D25*
X24940Y2660D02*
X24880Y2660D01*
G54D25*
X24880Y2660D02*
X24820Y2750D01*
G54D25*
X25180Y3020D02*
X25180Y3110D01*
G54D25*
X25180Y3110D02*
X25240Y3200D01*
G54D25*
X25240Y3200D02*
X25300Y3200D01*
G54D25*
X25300Y3200D02*
X25360Y3110D01*
G54D25*
X25360Y3110D02*
X25360Y3020D01*
G54D25*
X25360Y3020D02*
X25180Y2660D01*
G54D25*
X25180Y2660D02*
X25360Y2660D01*
G54D25*
X25960Y3020D02*
X25960Y3110D01*
G54D25*
X25960Y3110D02*
X26020Y3200D01*
G54D25*
X26020Y3200D02*
X26080Y3200D01*
G54D25*
X26080Y3200D02*
X26140Y3110D01*
G54D25*
X26140Y3110D02*
X26140Y3020D01*
G54D25*
X26140Y3020D02*
X25960Y2660D01*
G54D25*
X25960Y2660D02*
X26140Y2660D01*
G54D25*
X26320Y2930D02*
X26500Y2930D01*
G54D25*
X26680Y3110D02*
X26740Y3200D01*
G54D25*
X26740Y3200D02*
X26800Y3200D01*
G54D25*
X26800Y3200D02*
X26860Y3110D01*
G54D25*
X26860Y3110D02*
X26860Y3020D01*
G54D25*
X26860Y3020D02*
X26800Y2930D01*
G54D25*
X26800Y2930D02*
X26860Y2840D01*
G54D25*
X26860Y2840D02*
X26860Y2750D01*
G54D25*
X26860Y2750D02*
X26800Y2660D01*
G54D25*
X26800Y2660D02*
X26740Y2660D01*
G54D25*
X26740Y2660D02*
X26680Y2750D01*
G54D25*
X27520Y3200D02*
X27460Y3110D01*
G54D25*
X27460Y3110D02*
X27460Y2750D01*
G54D25*
X27460Y2750D02*
X27520Y2660D01*
G54D25*
X27520Y2660D02*
X27700Y2660D01*
G54D25*
X27700Y2660D02*
X27760Y2750D01*
G54D25*
X27760Y2750D02*
X27760Y3110D01*
G54D25*
X27760Y3110D02*
X27700Y3200D01*
G54D25*
X27700Y3200D02*
X27520Y3200D01*
G54D25*
X27940Y2660D02*
X27940Y3200D01*
G54D25*
X27940Y3200D02*
X28180Y2660D01*
G54D25*
X28180Y2660D02*
X28180Y3200D01*
G54D25*
X25000Y2240D02*
X25000Y1790D01*
G54D25*
X25000Y1790D02*
X24940Y1700D01*
G54D25*
X24940Y1700D02*
X24880Y1700D01*
G54D25*
X24880Y1700D02*
X24820Y1790D01*
G54D25*
X25180Y2150D02*
X25240Y2240D01*
G54D25*
X25240Y2240D02*
X25300Y2240D01*
G54D25*
X25300Y2240D02*
X25360Y2150D01*
G54D25*
X25360Y2150D02*
X25360Y2060D01*
G54D25*
X25360Y2060D02*
X25300Y1970D01*
G54D25*
X25300Y1970D02*
X25360Y1880D01*
G54D25*
X25360Y1880D02*
X25360Y1790D01*
G54D25*
X25360Y1790D02*
X25300Y1700D01*
G54D25*
X25300Y1700D02*
X25240Y1700D01*
G54D25*
X25240Y1700D02*
X25180Y1790D01*
G54D25*
X25960Y2060D02*
X25960Y2150D01*
G54D25*
X25960Y2150D02*
X26020Y2240D01*
G54D25*
X26020Y2240D02*
X26080Y2240D01*
G54D25*
X26080Y2240D02*
X26140Y2150D01*
G54D25*
X26140Y2150D02*
X26140Y2060D01*
G54D25*
X26140Y2060D02*
X25960Y1700D01*
G54D25*
X25960Y1700D02*
X26140Y1700D01*
G54D25*
X26320Y1970D02*
X26500Y1970D01*
G54D25*
X26680Y2150D02*
X26740Y2240D01*
G54D25*
X26740Y2240D02*
X26800Y2240D01*
G54D25*
X26800Y2240D02*
X26860Y2150D01*
G54D25*
X26860Y2150D02*
X26860Y2060D01*
G54D25*
X26860Y2060D02*
X26800Y1970D01*
G54D25*
X26800Y1970D02*
X26860Y1880D01*
G54D25*
X26860Y1880D02*
X26860Y1790D01*
G54D25*
X26860Y1790D02*
X26800Y1700D01*
G54D25*
X26800Y1700D02*
X26740Y1700D01*
G54D25*
X26740Y1700D02*
X26680Y1790D01*
G54D25*
X27520Y2240D02*
X27460Y2150D01*
G54D25*
X27460Y2150D02*
X27460Y1790D01*
G54D25*
X27460Y1790D02*
X27520Y1700D01*
G54D25*
X27520Y1700D02*
X27700Y1700D01*
G54D25*
X27700Y1700D02*
X27760Y1790D01*
G54D25*
X27760Y1790D02*
X27760Y2150D01*
G54D25*
X27760Y2150D02*
X27700Y2240D01*
G54D25*
X27700Y2240D02*
X27520Y2240D01*
G54D25*
X27940Y1700D02*
X27940Y2240D01*
G54D25*
X27940Y2240D02*
X28180Y1700D01*
G54D25*
X28180Y1700D02*
X28180Y2240D01*
G54D25*
X22610Y44150D02*
X22610Y43610D01*
G54D25*
X22610Y43610D02*
X22750Y43610D01*
G54D25*
X22750Y43610D02*
X22890Y43790D01*
G54D25*
X22890Y43790D02*
X22890Y43970D01*
G54D25*
X22890Y43970D02*
X22750Y44150D01*
G54D25*
X22750Y44150D02*
X22610Y44150D01*
G54D25*
X23100Y43610D02*
X23100Y44150D01*
G54D25*
X23100Y44150D02*
X23310Y44150D01*
G54D25*
X23310Y44150D02*
X23380Y44060D01*
G54D25*
X23380Y44060D02*
X23380Y43970D01*
G54D25*
X23380Y43970D02*
X23310Y43880D01*
G54D25*
X23310Y43880D02*
X23100Y43880D01*
G54D25*
X23240Y43880D02*
X23380Y43610D01*
G54D25*
X23590Y44150D02*
X23590Y43610D01*
G54D25*
X23800Y44150D02*
X24010Y43610D01*
G54D25*
X24010Y43610D02*
X24220Y44150D01*
G54D25*
X24710Y44150D02*
X24430Y44150D01*
G54D25*
X24430Y44150D02*
X24430Y43610D01*
G54D25*
X24430Y43610D02*
X24710Y43610D01*
G54D25*
X24430Y43880D02*
X24640Y43880D01*
G54D25*
X25760Y43970D02*
X25760Y44060D01*
G54D25*
X25760Y44060D02*
X25690Y44150D01*
G54D25*
X25690Y44150D02*
X25480Y44150D01*
G54D25*
X25480Y44150D02*
X25410Y44060D01*
G54D25*
X25410Y44060D02*
X25410Y43970D01*
G54D25*
X25410Y43970D02*
X25480Y43880D01*
G54D25*
X25480Y43880D02*
X25690Y43880D01*
G54D25*
X25690Y43880D02*
X25760Y43790D01*
G54D25*
X25760Y43790D02*
X25760Y43700D01*
G54D25*
X25760Y43700D02*
X25690Y43610D01*
G54D25*
X25690Y43610D02*
X25480Y43610D01*
G54D25*
X25480Y43610D02*
X25410Y43700D01*
G54D25*
X25410Y43700D02*
X25410Y43790D01*
G54D25*
X26250Y44150D02*
X25970Y44150D01*
G54D25*
X25970Y44150D02*
X25970Y43610D01*
G54D25*
X25970Y43610D02*
X26250Y43610D01*
G54D25*
X25970Y43880D02*
X26180Y43880D01*
G54D25*
X26460Y44150D02*
X26460Y43610D01*
G54D25*
X26460Y43610D02*
X26740Y43610D01*
G54D25*
X27230Y44150D02*
X26950Y44150D01*
G54D25*
X26950Y44150D02*
X26950Y43610D01*
G54D25*
X26950Y43610D02*
X27230Y43610D01*
G54D25*
X26950Y43880D02*
X27160Y43880D01*
G54D25*
X27720Y44060D02*
X27650Y44150D01*
G54D25*
X27650Y44150D02*
X27510Y44150D01*
G54D25*
X27510Y44150D02*
X27440Y44060D01*
G54D25*
X27440Y44060D02*
X27440Y43700D01*
G54D25*
X27440Y43700D02*
X27510Y43610D01*
G54D25*
X27510Y43610D02*
X27650Y43610D01*
G54D25*
X27650Y43610D02*
X27720Y43700D01*
G54D25*
X27930Y44150D02*
X28350Y44150D01*
G54D25*
X28140Y44150D02*
X28140Y43610D01*
G54D25*
X22780Y43200D02*
X22780Y42750D01*
G54D25*
X22780Y42750D02*
X22720Y42660D01*
G54D25*
X22720Y42660D02*
X22660Y42660D01*
G54D25*
X22660Y42660D02*
X22600Y42750D01*
G54D25*
X23140Y42660D02*
X23140Y43200D01*
G54D25*
X23140Y43200D02*
X22960Y42840D01*
G54D25*
X22960Y42840D02*
X23200Y42840D01*
G54D25*
X23860Y43020D02*
X23980Y43200D01*
G54D25*
X23980Y43200D02*
X23980Y42660D01*
G54D25*
X24160Y42930D02*
X24340Y42930D01*
G54D25*
X24520Y43020D02*
X24520Y43110D01*
G54D25*
X24520Y43110D02*
X24580Y43200D01*
G54D25*
X24580Y43200D02*
X24640Y43200D01*
G54D25*
X24640Y43200D02*
X24700Y43110D01*
G54D25*
X24700Y43110D02*
X24700Y43020D01*
G54D25*
X24700Y43020D02*
X24520Y42660D01*
G54D25*
X24520Y42660D02*
X24700Y42660D01*
G54D25*
X25300Y43200D02*
X25300Y42660D01*
G54D25*
X25300Y42660D02*
X25420Y42660D01*
G54D25*
X25420Y42660D02*
X25540Y42840D01*
G54D25*
X25540Y42840D02*
X25540Y43020D01*
G54D25*
X25540Y43020D02*
X25420Y43200D01*
G54D25*
X25420Y43200D02*
X25300Y43200D01*
G54D25*
X25960Y43200D02*
X25720Y43200D01*
G54D25*
X25720Y43200D02*
X25720Y42660D01*
G54D25*
X25720Y42930D02*
X25900Y42930D01*
G54D25*
X26200Y43020D02*
X26320Y43200D01*
G54D25*
X26320Y43200D02*
X26320Y42660D01*
G54D25*
X26560Y42930D03*
G54D25*
X26560Y42660D03*
G54D25*
X22780Y42250D02*
X22780Y41800D01*
G54D25*
X22780Y41800D02*
X22720Y41710D01*
G54D25*
X22720Y41710D02*
X22660Y41710D01*
G54D25*
X22660Y41710D02*
X22600Y41800D01*
G54D25*
X23140Y41710D02*
X23140Y42250D01*
G54D25*
X23140Y42250D02*
X22960Y41890D01*
G54D25*
X22960Y41890D02*
X23200Y41890D01*
G54D25*
X23800Y42160D02*
X23860Y42250D01*
G54D25*
X23860Y42250D02*
X23920Y42250D01*
G54D25*
X23920Y42250D02*
X23980Y42160D01*
G54D25*
X23980Y42160D02*
X23980Y42070D01*
G54D25*
X23980Y42070D02*
X23920Y41980D01*
G54D25*
X23920Y41980D02*
X23980Y41890D01*
G54D25*
X23980Y41890D02*
X23980Y41800D01*
G54D25*
X23980Y41800D02*
X23920Y41710D01*
G54D25*
X23920Y41710D02*
X23860Y41710D01*
G54D25*
X23860Y41710D02*
X23800Y41800D01*
G54D25*
X24160Y41980D02*
X24340Y41980D01*
G54D25*
X24700Y41710D02*
X24700Y42250D01*
G54D25*
X24700Y42250D02*
X24520Y41890D01*
G54D25*
X24520Y41890D02*
X24760Y41890D01*
G54D25*
X25360Y42250D02*
X25360Y41710D01*
G54D25*
X25360Y41710D02*
X25480Y41710D01*
G54D25*
X25480Y41710D02*
X25600Y41890D01*
G54D25*
X25600Y41890D02*
X25600Y42070D01*
G54D25*
X25600Y42070D02*
X25480Y42250D01*
G54D25*
X25480Y42250D02*
X25360Y42250D01*
G54D25*
X26020Y42250D02*
X25780Y42250D01*
G54D25*
X25780Y42250D02*
X25780Y41710D01*
G54D25*
X25780Y41980D02*
X25960Y41980D01*
G54D25*
X26200Y42070D02*
X26200Y42160D01*
G54D25*
X26200Y42160D02*
X26260Y42250D01*
G54D25*
X26260Y42250D02*
X26320Y42250D01*
G54D25*
X26320Y42250D02*
X26380Y42160D01*
G54D25*
X26380Y42160D02*
X26380Y42070D01*
G54D25*
X26380Y42070D02*
X26200Y41710D01*
G54D25*
X26200Y41710D02*
X26380Y41710D01*
G54D25*
X26620Y41980D03*
G54D25*
X26620Y41710D03*
G54D25*
X22780Y41300D02*
X22780Y40850D01*
G54D25*
X22780Y40850D02*
X22720Y40760D01*
G54D25*
X22720Y40760D02*
X22660Y40760D01*
G54D25*
X22660Y40760D02*
X22600Y40850D01*
G54D25*
X23140Y40760D02*
X23140Y41300D01*
G54D25*
X23140Y41300D02*
X22960Y40940D01*
G54D25*
X22960Y40940D02*
X23200Y40940D01*
G54D25*
X23980Y41300D02*
X23860Y41300D01*
G54D25*
X23860Y41300D02*
X23800Y41030D01*
G54D25*
X23800Y41030D02*
X23860Y41120D01*
G54D25*
X23860Y41120D02*
X23920Y41120D01*
G54D25*
X23920Y41120D02*
X23980Y41030D01*
G54D25*
X23980Y41030D02*
X23980Y40850D01*
G54D25*
X23980Y40850D02*
X23920Y40760D01*
G54D25*
X23920Y40760D02*
X23860Y40760D01*
G54D25*
X23860Y40760D02*
X23800Y40850D01*
G54D25*
X24160Y41030D02*
X24340Y41030D01*
G54D25*
X24700Y41210D02*
X24640Y41300D01*
G54D25*
X24640Y41300D02*
X24580Y41300D01*
G54D25*
X24580Y41300D02*
X24520Y41210D01*
G54D25*
X24520Y41210D02*
X24520Y40850D01*
G54D25*
X24520Y40850D02*
X24580Y40760D01*
G54D25*
X24580Y40760D02*
X24640Y40760D01*
G54D25*
X24640Y40760D02*
X24700Y40850D01*
G54D25*
X24700Y40850D02*
X24700Y40940D01*
G54D25*
X24700Y40940D02*
X24640Y41030D01*
G54D25*
X24640Y41030D02*
X24580Y41030D01*
G54D25*
X24580Y41030D02*
X24520Y40940D01*
G54D25*
X25300Y41300D02*
X25300Y40760D01*
G54D25*
X25300Y40760D02*
X25420Y40760D01*
G54D25*
X25420Y40760D02*
X25540Y40940D01*
G54D25*
X25540Y40940D02*
X25540Y41120D01*
G54D25*
X25540Y41120D02*
X25420Y41300D01*
G54D25*
X25420Y41300D02*
X25300Y41300D01*
G54D25*
X25960Y41300D02*
X25720Y41300D01*
G54D25*
X25720Y41300D02*
X25720Y40760D01*
G54D25*
X25720Y41030D02*
X25900Y41030D01*
G54D25*
X26140Y41210D02*
X26200Y41300D01*
G54D25*
X26200Y41300D02*
X26260Y41300D01*
G54D25*
X26260Y41300D02*
X26320Y41210D01*
G54D25*
X26320Y41210D02*
X26320Y41120D01*
G54D25*
X26320Y41120D02*
X26260Y41030D01*
G54D25*
X26260Y41030D02*
X26320Y40940D01*
G54D25*
X26320Y40940D02*
X26320Y40850D01*
G54D25*
X26320Y40850D02*
X26260Y40760D01*
G54D25*
X26260Y40760D02*
X26200Y40760D01*
G54D25*
X26200Y40760D02*
X26140Y40850D01*
G54D25*
X26560Y41030D03*
G54D25*
X26560Y40760D03*
G54D25*
X270Y34670D02*
X630Y34790D01*
G54D25*
X630Y34790D02*
X270Y34850D01*
G54D25*
X270Y34850D02*
X630Y34910D01*
G54D25*
X630Y34910D02*
X270Y35030D01*
G54D25*
X270Y35210D02*
X630Y35330D01*
G54D25*
X630Y35330D02*
X270Y35390D01*
G54D25*
X270Y35390D02*
X630Y35450D01*
G54D25*
X630Y35450D02*
X270Y35570D01*
G54D25*
X270Y35750D02*
X630Y35870D01*
G54D25*
X630Y35870D02*
X270Y35930D01*
G54D25*
X270Y35930D02*
X630Y35990D01*
G54D25*
X630Y35990D02*
X270Y36110D01*
G54D25*
X630Y36290D03*
G54D25*
X270Y36470D02*
X630Y36470D01*
G54D25*
X360Y36470D02*
X270Y36530D01*
G54D25*
X270Y36530D02*
X270Y36590D01*
G54D25*
X450Y36770D02*
X450Y37010D01*
G54D25*
X450Y37010D02*
X360Y37010D01*
G54D25*
X360Y37010D02*
X270Y36950D01*
G54D25*
X270Y36950D02*
X270Y36830D01*
G54D25*
X270Y36830D02*
X360Y36770D01*
G54D25*
X360Y36770D02*
X540Y36770D01*
G54D25*
X540Y36770D02*
X630Y36830D01*
G54D25*
X630Y36830D02*
X630Y36950D01*
G54D25*
X630Y36950D02*
X540Y37010D01*
G54D25*
X90Y37250D02*
X540Y37250D01*
G54D25*
X540Y37250D02*
X630Y37310D01*
G54D25*
X270Y37190D02*
X270Y37310D01*
G54D25*
X270Y37490D02*
X630Y37490D01*
G54D25*
X360Y37490D02*
X270Y37550D01*
G54D25*
X270Y37550D02*
X270Y37610D01*
G54D25*
X360Y37790D02*
X540Y37790D01*
G54D25*
X540Y37790D02*
X630Y37850D01*
G54D25*
X630Y37850D02*
X630Y37970D01*
G54D25*
X630Y37970D02*
X540Y38030D01*
G54D25*
X540Y38030D02*
X360Y38030D01*
G54D25*
X360Y38030D02*
X270Y37970D01*
G54D25*
X270Y37970D02*
X270Y37850D01*
G54D25*
X270Y37850D02*
X360Y37790D01*
G54D25*
X270Y38210D02*
X630Y38210D01*
G54D25*
X360Y38210D02*
X270Y38270D01*
G54D25*
X270Y38270D02*
X270Y38390D01*
G54D25*
X270Y38390D02*
X360Y38450D01*
G54D25*
X360Y38450D02*
X630Y38450D01*
G54D25*
X90Y38630D03*
G54D25*
X270Y38630D02*
X630Y38630D01*
G54D25*
X360Y39050D02*
X270Y38990D01*
G54D25*
X270Y38990D02*
X270Y38870D01*
G54D25*
X270Y38870D02*
X360Y38810D01*
G54D25*
X360Y38810D02*
X540Y38810D01*
G54D25*
X540Y38810D02*
X630Y38870D01*
G54D25*
X630Y38870D02*
X630Y38990D01*
G54D25*
X630Y38990D02*
X540Y39050D01*
G54D25*
X90Y39470D02*
X630Y39470D01*
G54D25*
X360Y39470D02*
X270Y39410D01*
G54D25*
X270Y39410D02*
X270Y39290D01*
G54D25*
X270Y39290D02*
X360Y39230D01*
G54D25*
X360Y39230D02*
X540Y39230D01*
G54D25*
X540Y39230D02*
X630Y39290D01*
G54D25*
X630Y39290D02*
X630Y39410D01*
G54D25*
X630Y39410D02*
X540Y39470D01*
G54D25*
X450Y39650D02*
X450Y39890D01*
G54D25*
X450Y39890D02*
X360Y39890D01*
G54D25*
X360Y39890D02*
X270Y39830D01*
G54D25*
X270Y39830D02*
X270Y39710D01*
G54D25*
X270Y39710D02*
X360Y39650D01*
G54D25*
X360Y39650D02*
X540Y39650D01*
G54D25*
X540Y39650D02*
X630Y39710D01*
G54D25*
X630Y39710D02*
X630Y39830D01*
G54D25*
X630Y39830D02*
X540Y39890D01*
G54D25*
X360Y40310D02*
X270Y40250D01*
G54D25*
X270Y40250D02*
X270Y40130D01*
G54D25*
X270Y40130D02*
X360Y40070D01*
G54D25*
X360Y40070D02*
X450Y40130D01*
G54D25*
X450Y40130D02*
X450Y40250D01*
G54D25*
X450Y40250D02*
X540Y40310D01*
G54D25*
X540Y40310D02*
X630Y40250D01*
G54D25*
X630Y40250D02*
X630Y40130D01*
G54D25*
X630Y40130D02*
X540Y40070D01*
G54D25*
X90Y40490D03*
G54D25*
X270Y40490D02*
X630Y40490D01*
G54D25*
X270Y40910D02*
X720Y40910D01*
G54D25*
X720Y40910D02*
X810Y40850D01*
G54D25*
X810Y40850D02*
X810Y40730D01*
G54D25*
X810Y40730D02*
X720Y40670D01*
G54D25*
X360Y40910D02*
X270Y40850D01*
G54D25*
X270Y40850D02*
X270Y40730D01*
G54D25*
X270Y40730D02*
X360Y40670D01*
G54D25*
X360Y40670D02*
X540Y40670D01*
G54D25*
X540Y40670D02*
X630Y40730D01*
G54D25*
X630Y40730D02*
X630Y40850D01*
G54D25*
X630Y40850D02*
X540Y40910D01*
G54D25*
X270Y41090D02*
X630Y41090D01*
G54D25*
X360Y41090D02*
X270Y41150D01*
G54D25*
X270Y41150D02*
X270Y41270D01*
G54D25*
X270Y41270D02*
X360Y41330D01*
G54D25*
X360Y41330D02*
X630Y41330D01*
G54D25*
X630Y41510D03*
G54D25*
X360Y41930D02*
X270Y41870D01*
G54D25*
X270Y41870D02*
X270Y41750D01*
G54D25*
X270Y41750D02*
X360Y41690D01*
G54D25*
X360Y41690D02*
X540Y41690D01*
G54D25*
X540Y41690D02*
X630Y41750D01*
G54D25*
X630Y41750D02*
X630Y41870D01*
G54D25*
X630Y41870D02*
X540Y41930D01*
G54D25*
X360Y42110D02*
X540Y42110D01*
G54D25*
X540Y42110D02*
X630Y42170D01*
G54D25*
X630Y42170D02*
X630Y42290D01*
G54D25*
X630Y42290D02*
X540Y42350D01*
G54D25*
X540Y42350D02*
X360Y42350D01*
G54D25*
X360Y42350D02*
X270Y42290D01*
G54D25*
X270Y42290D02*
X270Y42170D01*
G54D25*
X270Y42170D02*
X360Y42110D01*
G54D25*
X270Y42530D02*
X630Y42530D01*
G54D25*
X360Y42530D02*
X270Y42590D01*
G54D25*
X270Y42590D02*
X270Y42650D01*
G54D25*
X270Y42650D02*
X360Y42710D01*
G54D25*
X360Y42710D02*
X630Y42710D01*
G54D25*
X360Y42710D02*
X270Y42770D01*
G54D25*
X270Y42770D02*
X270Y42830D01*
G54D25*
X270Y42830D02*
X360Y42890D01*
G54D25*
X360Y42890D02*
X630Y42890D01*
G54D25*
X27680Y42930D02*
X27680Y42750D01*
G54D25*
X27680Y42750D02*
X27740Y42660D01*
G54D25*
X27740Y42660D02*
X27860Y42660D01*
G54D25*
X27860Y42660D02*
X27920Y42750D01*
G54D25*
X27920Y42750D02*
X27920Y42930D01*
G54D25*
X27920Y42930D02*
X27860Y43020D01*
G54D25*
X27860Y43020D02*
X27740Y43020D01*
G54D25*
X27740Y43020D02*
X27680Y42930D01*
G54D25*
X28100Y42930D02*
X28280Y42930D01*
G54D25*
X28460Y42930D02*
X28460Y42750D01*
G54D25*
X28460Y42750D02*
X28520Y42660D01*
G54D25*
X28520Y42660D02*
X28640Y42660D01*
G54D25*
X28640Y42660D02*
X28700Y42750D01*
G54D25*
X28700Y42750D02*
X28700Y42930D01*
G54D25*
X28700Y42930D02*
X28640Y43020D01*
G54D25*
X28640Y43020D02*
X28520Y43020D01*
G54D25*
X28520Y43020D02*
X28460Y42930D01*
G54D25*
X27680Y41980D02*
X27680Y41800D01*
G54D25*
X27680Y41800D02*
X27740Y41710D01*
G54D25*
X27740Y41710D02*
X27860Y41710D01*
G54D25*
X27860Y41710D02*
X27920Y41800D01*
G54D25*
X27920Y41800D02*
X27920Y41980D01*
G54D25*
X27920Y41980D02*
X27860Y42070D01*
G54D25*
X27860Y42070D02*
X27740Y42070D01*
G54D25*
X27740Y42070D02*
X27680Y41980D01*
G54D25*
X28100Y41980D02*
X28280Y41980D01*
G54D25*
X28460Y41980D02*
X28460Y41800D01*
G54D25*
X28460Y41800D02*
X28520Y41710D01*
G54D25*
X28520Y41710D02*
X28640Y41710D01*
G54D25*
X28640Y41710D02*
X28700Y41800D01*
G54D25*
X28700Y41800D02*
X28700Y41980D01*
G54D25*
X28700Y41980D02*
X28640Y42070D01*
G54D25*
X28640Y42070D02*
X28520Y42070D01*
G54D25*
X28520Y42070D02*
X28460Y41980D01*
G54D25*
X27680Y41030D02*
X27680Y40850D01*
G54D25*
X27680Y40850D02*
X27740Y40760D01*
G54D25*
X27740Y40760D02*
X27860Y40760D01*
G54D25*
X27860Y40760D02*
X27920Y40850D01*
G54D25*
X27920Y40850D02*
X27920Y41030D01*
G54D25*
X27920Y41030D02*
X27860Y41120D01*
G54D25*
X27860Y41120D02*
X27740Y41120D01*
G54D25*
X27740Y41120D02*
X27680Y41030D01*
G54D25*
X28100Y41030D02*
X28280Y41030D01*
G54D25*
X28460Y41030D02*
X28460Y40850D01*
G54D25*
X28460Y40850D02*
X28520Y40760D01*
G54D25*
X28520Y40760D02*
X28640Y40760D01*
G54D25*
X28640Y40760D02*
X28700Y40850D01*
G54D25*
X28700Y40850D02*
X28700Y41030D01*
G54D25*
X28700Y41030D02*
X28640Y41120D01*
G54D25*
X28640Y41120D02*
X28520Y41120D01*
G54D25*
X28520Y41120D02*
X28460Y41030D01*
G54D25*
X20420Y5010D02*
X20350Y5100D01*
G54D25*
X20350Y5100D02*
X20140Y5100D01*
G54D25*
X20140Y5100D02*
X20070Y5010D01*
G54D25*
X20070Y5010D02*
X20070Y4650D01*
G54D25*
X20070Y4650D02*
X20140Y4560D01*
G54D25*
X20140Y4560D02*
X20350Y4560D01*
G54D25*
X20350Y4560D02*
X20420Y4650D01*
G54D25*
X20420Y4650D02*
X20420Y4830D01*
G54D25*
X20420Y4830D02*
X20280Y4830D01*
G54D25*
X20770Y5100D02*
X20700Y5010D01*
G54D25*
X20700Y5010D02*
X20700Y4650D01*
G54D25*
X20700Y4650D02*
X20770Y4560D01*
G54D25*
X20770Y4560D02*
X20980Y4560D01*
G54D25*
X20980Y4560D02*
X21050Y4650D01*
G54D25*
X21050Y4650D02*
X21050Y5010D01*
G54D25*
X21050Y5010D02*
X20980Y5100D01*
G54D25*
X20980Y5100D02*
X20770Y5100D01*
G54D25*
X21260Y5100D02*
X21680Y5100D01*
G54D25*
X21470Y5100D02*
X21470Y4560D01*
G54D25*
X22170Y5100D02*
X21890Y5100D01*
G54D25*
X21890Y5100D02*
X21890Y4560D01*
G54D25*
X21890Y4560D02*
X22170Y4560D01*
G54D25*
X21890Y4830D02*
X22100Y4830D01*
G54D25*
X22380Y5100D02*
X22380Y4560D01*
G54D25*
X22380Y4740D02*
X22660Y5100D01*
G54D25*
X22450Y4830D02*
X22660Y4560D01*
G54D25*
X11180Y37740D02*
X11050Y37810D01*
G54D25*
X11050Y37810D02*
X11050Y37880D01*
G54D25*
X11050Y37880D02*
X11180Y37950D01*
G54D25*
X11180Y37950D02*
X11310Y37950D01*
G54D25*
X11310Y37950D02*
X11440Y37880D01*
G54D25*
X11440Y37880D02*
X11570Y37950D01*
G54D25*
X11570Y37950D02*
X11700Y37950D01*
G54D25*
X11700Y37950D02*
X11830Y37880D01*
G54D25*
X11830Y37880D02*
X11830Y37810D01*
G54D25*
X11830Y37810D02*
X11700Y37740D01*
G54D25*
X11310Y40120D02*
X11180Y40120D01*
G54D25*
X11180Y40120D02*
X11050Y40190D01*
G54D25*
X11050Y40190D02*
X11050Y40260D01*
G54D25*
X11050Y40260D02*
X11180Y40330D01*
G54D25*
X11180Y40330D02*
X11310Y40330D01*
G54D25*
X11310Y40330D02*
X11830Y40120D01*
G54D25*
X11830Y40120D02*
X11830Y40330D01*
G54D25*
X11310Y42570D02*
X11050Y42710D01*
G54D25*
X11050Y42710D02*
X11830Y42710D01*
G54D25*
X7180Y27740D02*
X7050Y27810D01*
G54D25*
X7050Y27810D02*
X7050Y27880D01*
G54D25*
X7050Y27880D02*
X7180Y27950D01*
G54D25*
X7180Y27950D02*
X7310Y27950D01*
G54D25*
X7310Y27950D02*
X7440Y27880D01*
G54D25*
X7440Y27880D02*
X7570Y27950D01*
G54D25*
X7570Y27950D02*
X7700Y27950D01*
G54D25*
X7700Y27950D02*
X7830Y27880D01*
G54D25*
X7830Y27880D02*
X7830Y27810D01*
G54D25*
X7830Y27810D02*
X7700Y27740D01*
G54D25*
X7310Y30120D02*
X7180Y30120D01*
G54D25*
X7180Y30120D02*
X7050Y30190D01*
G54D25*
X7050Y30190D02*
X7050Y30260D01*
G54D25*
X7050Y30260D02*
X7180Y30330D01*
G54D25*
X7180Y30330D02*
X7310Y30330D01*
G54D25*
X7310Y30330D02*
X7830Y30120D01*
G54D25*
X7830Y30120D02*
X7830Y30330D01*
G54D25*
X7310Y32570D02*
X7050Y32710D01*
G54D25*
X7050Y32710D02*
X7830Y32710D01*
G54D25*
X13260Y4680D02*
X13400Y4940D01*
G54D25*
X13400Y4940D02*
X13400Y4160D01*
G54D25*
X15570Y4680D02*
X15570Y4810D01*
G54D25*
X15570Y4810D02*
X15640Y4940D01*
G54D25*
X15640Y4940D02*
X15710Y4940D01*
G54D25*
X15710Y4940D02*
X15780Y4810D01*
G54D25*
X15780Y4810D02*
X15780Y4680D01*
G54D25*
X15780Y4680D02*
X15570Y4160D01*
G54D25*
X15570Y4160D02*
X15780Y4160D01*
G54D25*
X17950Y4810D02*
X18020Y4940D01*
G54D25*
X18020Y4940D02*
X18090Y4940D01*
G54D25*
X18090Y4940D02*
X18160Y4810D01*
G54D25*
X18160Y4810D02*
X18160Y4680D01*
G54D25*
X18160Y4680D02*
X18090Y4550D01*
G54D25*
X18090Y4550D02*
X18160Y4420D01*
G54D25*
X18160Y4420D02*
X18160Y4290D01*
G54D25*
X18160Y4290D02*
X18090Y4160D01*
G54D25*
X18090Y4160D02*
X18020Y4160D01*
G54D25*
X18020Y4160D02*
X17950Y4290D01*
G54D25*
X23300Y31280D02*
X23300Y30740D01*
G54D25*
X23300Y30740D02*
X23460Y30740D01*
G54D25*
X23460Y30740D02*
X23620Y30920D01*
G54D25*
X23620Y30920D02*
X23620Y31100D01*
G54D25*
X23620Y31100D02*
X23460Y31280D01*
G54D25*
X23460Y31280D02*
X23300Y31280D01*
G54D25*
X24180Y31280D02*
X23860Y31280D01*
G54D25*
X23860Y31280D02*
X23860Y30740D01*
G54D25*
X23860Y31010D02*
X24100Y31010D01*
G54D25*
X24500Y31100D02*
X24660Y31280D01*
G54D25*
X24660Y31280D02*
X24660Y30740D01*
G54D25*
X23300Y28780D02*
X23300Y28240D01*
G54D25*
X23300Y28240D02*
X23460Y28240D01*
G54D25*
X23460Y28240D02*
X23620Y28420D01*
G54D25*
X23620Y28420D02*
X23620Y28600D01*
G54D25*
X23620Y28600D02*
X23460Y28780D01*
G54D25*
X23460Y28780D02*
X23300Y28780D01*
G54D25*
X24180Y28780D02*
X23860Y28780D01*
G54D25*
X23860Y28780D02*
X23860Y28240D01*
G54D25*
X23860Y28510D02*
X24100Y28510D01*
G54D25*
X24420Y28600D02*
X24420Y28690D01*
G54D25*
X24420Y28690D02*
X24500Y28780D01*
G54D25*
X24500Y28780D02*
X24580Y28780D01*
G54D25*
X24580Y28780D02*
X24660Y28690D01*
G54D25*
X24660Y28690D02*
X24660Y28600D01*
G54D25*
X24660Y28600D02*
X24420Y28240D01*
G54D25*
X24420Y28240D02*
X24660Y28240D01*
G54D25*
X23300Y26280D02*
X23300Y25740D01*
G54D25*
X23300Y25740D02*
X23460Y25740D01*
G54D25*
X23460Y25740D02*
X23620Y25920D01*
G54D25*
X23620Y25920D02*
X23620Y26100D01*
G54D25*
X23620Y26100D02*
X23460Y26280D01*
G54D25*
X23460Y26280D02*
X23300Y26280D01*
G54D25*
X24180Y26280D02*
X23860Y26280D01*
G54D25*
X23860Y26280D02*
X23860Y25740D01*
G54D25*
X23860Y26010D02*
X24100Y26010D01*
G54D25*
X24420Y26190D02*
X24500Y26280D01*
G54D25*
X24500Y26280D02*
X24580Y26280D01*
G54D25*
X24580Y26280D02*
X24660Y26190D01*
G54D25*
X24660Y26190D02*
X24660Y26100D01*
G54D25*
X24660Y26100D02*
X24580Y26010D01*
G54D25*
X24580Y26010D02*
X24660Y25920D01*
G54D25*
X24660Y25920D02*
X24660Y25830D01*
G54D25*
X24660Y25830D02*
X24580Y25740D01*
G54D25*
X24580Y25740D02*
X24500Y25740D01*
G54D25*
X24500Y25740D02*
X24420Y25830D01*
M02*
