%FSLAX23Y23*%
%MOMM*%
%AMPASTFTDEUX*
20,1,$5,$1+$3,$2-$4,$1-$3,$2+$4,0*
20,1,$5,$1+$3,$2+$4,$1-$3,$2-$4,0*%
%ADD10C,0.8*%
%ADD11C,0.7*%
%ADD12R,5.4X2.2*%
%ADD13R,2.3X2.3*%
%ADD14PASTFTDEUX,0X0X1.21X1.21X0.3*%
%ADD15C,2.3*%
%ADD16PASTFTDEUX,0X0X0.82X0.82X0.3*%
%ADD17R,2.4X2.4*%
%ADD18C,2.4*%
%ADD19PASTFTDEUX,0X0X0.85X0.85X0.3*%
%ADD20C,0.9*%
%ADD21C,0.4*%
%ADD22C,0.3*%
%ADD23R,5X1.8*%
%ADD24C,0.2*%
%ADD25C,0.1*%
%ADD26R,1.9X1.9*%
%ADD27C,1*%
%ADD28C,1.9*%
%ADD29R,1.7X1.3*%
%ADD30R,1X1.25*%
%ADD31R,1X1.3*%
%ADD32R,1.3X1*%
%ADD33R,2X2*%
%ADD34C,2*%
%ADD35R,1.25X1*%
%ADD36R,0.4X0.9*%
%ADD37R,2.2X0.7*%
%ADD38C,0.5*%
%ADD39C,0.05*%
G54D27*
X2770Y43150D03*
G54D27*
X5310Y43150D03*
G54D27*
X2770Y40610D03*
G54D27*
X5310Y40610D03*
G54D27*
X2770Y38070D03*
G54D27*
X5310Y38070D03*
G54D27*
X2770Y35530D03*
G54D27*
X5310Y35530D03*
G54D27*
X2770Y32990D03*
G54D27*
X5310Y32990D03*
G54D27*
X2770Y30450D03*
G54D27*
X5310Y30450D03*
G54D27*
X2770Y27910D03*
G54D27*
X5310Y27910D03*
G54D27*
X2770Y25370D03*
G54D27*
X5310Y25370D03*
G54D27*
X2770Y22830D03*
G54D27*
X5310Y22830D03*
G54D27*
X2770Y20290D03*
G54D27*
X5310Y20290D03*
G54D27*
X2770Y17750D03*
G54D27*
X5310Y17750D03*
G54D27*
X2770Y15210D03*
G54D27*
X5310Y15210D03*
G54D27*
X2770Y12670D03*
G54D27*
X5310Y12670D03*
G54D27*
X2770Y10130D03*
G54D27*
X5310Y10130D03*
G54D27*
X2770Y7590D03*
G54D27*
X5310Y7590D03*
G54D27*
X2770Y5050D03*
G54D27*
X5310Y5050D03*
G54D27*
X2770Y2510D03*
G54D27*
X5310Y2510D03*
G54D27*
X15350Y35510D03*
G54D27*
X15350Y38050D03*
G54D27*
X15350Y40590D03*
G54D27*
X15350Y43130D03*
G54D27*
X13170Y2510D03*
G54D27*
X15710Y2510D03*
G54D27*
X18250Y2510D03*
G54D27*
X9460Y43150D03*
G54D27*
X9460Y40610D03*
G54D27*
X9460Y38070D03*
G54D27*
X9460Y32990D03*
G54D27*
X9460Y30450D03*
G54D27*
X9460Y27910D03*
G54D27*
X21890Y31150D03*
G54D27*
X21890Y28610D03*
G54D27*
X21890Y26070D03*
G54D27*
X19350Y31150D03*
G54D27*
X19350Y28610D03*
G54D27*
X19350Y26070D03*
G54D22*
X24150Y13100D03*
G54D22*
X17400Y17330D03*
G54D22*
X21910Y41350D03*
G54D22*
X14190Y6000D03*
G54D22*
X11440Y21460D03*
G54D22*
X23960Y10310D03*
G54D22*
X15950Y21020D03*
G54D22*
X19430Y7150D03*
G54D22*
X23170Y7150D03*
G54D22*
X15710Y6280D03*
G54D22*
X11200Y36520D03*
G54D22*
X10180Y20170D03*
G54D22*
X22430Y21410D03*
G54D22*
X17710Y21410D03*
G54D22*
X17110Y25540D03*
G54D22*
X21280Y17820D03*
G54D22*
X19370Y17820D03*
G54D22*
X15510Y25540D03*
M02*
