%FSLAX23Y23*%
%MOMM*%
%ADD10R,5X1.8*%
%ADD11C,0.2*%
%ADD12C,0.1*%
%ADD13R,1.9X1.9*%
%ADD14C,1.9*%
%ADD15R,1.7X1.3*%
%ADD16R,1X1.25*%
%ADD17R,1X1.3*%
%ADD18R,1.3X1*%
%ADD19R,2X2*%
%ADD20C,2*%
%ADD21R,1.25X1*%
%ADD22R,0.4X0.9*%
%ADD23R,2.2X0.7*%
%ADD24C,0.05*%
%LPD*%
G54D10*
X27300Y38100D03*
G54D10*
X27300Y35320D03*
G54D10*
X27300Y32540D03*
G54D10*
X27300Y29760D03*
G54D10*
X27300Y26980D03*
G54D10*
X27300Y24200D03*
G54D10*
X27300Y21420D03*
G54D10*
X27300Y18640D03*
G54D10*
X27300Y15860D03*
G54D10*
X27300Y13080D03*
G54D10*
X27300Y10300D03*
G54D10*
X27300Y7520D03*
G54D13*
X2770Y43150D03*
G54D14*
X5310Y43150D03*
G54D14*
X2770Y40610D03*
G54D14*
X5310Y40610D03*
G54D14*
X2770Y38070D03*
G54D14*
X5310Y38070D03*
G54D14*
X2770Y35530D03*
G54D14*
X5310Y35530D03*
G54D14*
X2770Y32990D03*
G54D14*
X5310Y32990D03*
G54D14*
X2770Y30450D03*
G54D14*
X5310Y30450D03*
G54D14*
X2770Y27910D03*
G54D14*
X5310Y27910D03*
G54D14*
X2770Y25370D03*
G54D14*
X5310Y25370D03*
G54D14*
X2770Y22830D03*
G54D14*
X5310Y22830D03*
G54D14*
X2770Y20290D03*
G54D14*
X5310Y20290D03*
G54D14*
X2770Y17750D03*
G54D14*
X5310Y17750D03*
G54D14*
X2770Y15210D03*
G54D14*
X5310Y15210D03*
G54D14*
X2770Y12670D03*
G54D14*
X5310Y12670D03*
G54D14*
X2770Y10130D03*
G54D14*
X5310Y10130D03*
G54D14*
X2770Y7590D03*
G54D14*
X5310Y7590D03*
G54D14*
X2770Y5050D03*
G54D14*
X5310Y5050D03*
G54D14*
X2770Y2510D03*
G54D14*
X5310Y2510D03*
G54D15*
X20470Y38100D03*
G54D15*
X20470Y41350D03*
G54D16*
X12190Y7260D03*
G54D17*
X14190Y7260D03*
G54D18*
X11440Y22570D03*
G54D18*
X11440Y24570D03*
G54D19*
X15350Y35510D03*
G54D20*
X15350Y38050D03*
G54D20*
X15350Y40590D03*
G54D20*
X15350Y43130D03*
G54D19*
X13170Y2510D03*
G54D20*
X15710Y2510D03*
G54D20*
X18250Y2510D03*
G54D19*
X9460Y43150D03*
G54D20*
X9460Y40610D03*
G54D20*
X9460Y38070D03*
G54D19*
X9460Y32990D03*
G54D20*
X9460Y30450D03*
G54D20*
X9460Y27910D03*
G54D20*
X21890Y31150D03*
G54D20*
X21890Y28610D03*
G54D20*
X21890Y26070D03*
G54D19*
X19350Y31150D03*
G54D20*
X19350Y28610D03*
G54D20*
X19350Y26070D03*
G54D21*
X8990Y22570D03*
G54D18*
X8990Y24570D03*
G54D16*
X21430Y11410D03*
G54D17*
X19430Y11410D03*
G54D16*
X13940Y31520D03*
G54D17*
X11940Y31520D03*
G54D18*
X16270Y27350D03*
G54D18*
X16270Y29350D03*
G54D17*
X19430Y8870D03*
G54D17*
X21430Y8870D03*
G54D17*
X17710Y18670D03*
G54D17*
X15710Y18670D03*
G54D18*
X22880Y36100D03*
G54D18*
X22880Y38100D03*
G54D17*
X8090Y12670D03*
G54D16*
X10090Y12670D03*
G54D17*
X8090Y10130D03*
G54D17*
X10090Y10130D03*
G54D16*
X8090Y7590D03*
G54D17*
X10090Y7590D03*
G54D22*
X13290Y21020D03*
G54D22*
X13940Y21020D03*
G54D22*
X14590Y21020D03*
G54D22*
X15240Y21020D03*
G54D22*
X13290Y24570D03*
G54D22*
X13940Y24570D03*
G54D22*
X14590Y24570D03*
G54D22*
X15240Y24570D03*
G54D23*
X17400Y12680D03*
G54D23*
X17400Y11410D03*
G54D23*
X17400Y10140D03*
G54D23*
X17400Y8870D03*
G54D23*
X12200Y12680D03*
G54D23*
X12200Y11410D03*
G54D23*
X12200Y10140D03*
G54D23*
X12200Y8870D03*
G54D23*
X17400Y13950D03*
G54D23*
X17400Y15220D03*
G54D23*
X17400Y16490D03*
G54D23*
X12200Y16490D03*
G54D23*
X12200Y15220D03*
G54D23*
X12200Y13950D03*
M02*
