%FSLAX23Y23*%
%MOMM*%
%ADD10R,5X1.8*%
%ADD11C,0.2*%
%ADD12C,0.1*%
%ADD13R,1.9X1.9*%
%ADD14C,1.9*%
%ADD15R,1.7X1.3*%
%ADD16R,1X1.25*%
%ADD17R,1X1.3*%
%ADD18R,1.3X1*%
%ADD19R,2X2*%
%ADD20C,2*%
%ADD21R,1.25X1*%
%ADD22R,0.4X0.9*%
%ADD23R,2.2X0.7*%
%ADD24C,0.05*%
%LPD*%
G54D10*
X27300Y36710D03*
G54D10*
X27300Y33930D03*
G54D10*
X27300Y31150D03*
G54D10*
X27300Y28370D03*
G54D10*
X27300Y25590D03*
G54D10*
X27300Y22810D03*
G54D10*
X27300Y20030D03*
G54D10*
X27300Y17250D03*
G54D10*
X27300Y14470D03*
G54D10*
X27300Y11690D03*
G54D10*
X27300Y8910D03*
G54D13*
X2770Y43150D03*
G54D14*
X5310Y43150D03*
G54D14*
X2770Y40610D03*
G54D14*
X5310Y40610D03*
G54D14*
X2770Y38070D03*
G54D14*
X5310Y38070D03*
G54D14*
X2770Y35530D03*
G54D14*
X5310Y35530D03*
G54D14*
X2770Y32990D03*
G54D14*
X5310Y32990D03*
G54D14*
X2770Y30450D03*
G54D14*
X5310Y30450D03*
G54D14*
X2770Y27910D03*
G54D14*
X5310Y27910D03*
G54D14*
X2770Y25370D03*
G54D14*
X5310Y25370D03*
G54D14*
X2770Y22830D03*
G54D14*
X5310Y22830D03*
G54D14*
X2770Y20290D03*
G54D14*
X5310Y20290D03*
G54D14*
X2770Y17750D03*
G54D14*
X5310Y17750D03*
G54D14*
X2770Y15210D03*
G54D14*
X5310Y15210D03*
G54D14*
X2770Y12670D03*
G54D14*
X5310Y12670D03*
G54D14*
X2770Y10130D03*
G54D14*
X5310Y10130D03*
G54D14*
X2770Y7590D03*
G54D14*
X5310Y7590D03*
G54D14*
X2770Y5050D03*
G54D14*
X5310Y5050D03*
G54D14*
X2770Y2510D03*
G54D14*
X5310Y2510D03*
G54D19*
X15350Y35510D03*
G54D20*
X15350Y38050D03*
G54D20*
X15350Y40590D03*
G54D20*
X15350Y43130D03*
G54D19*
X13170Y2510D03*
G54D20*
X15710Y2510D03*
G54D20*
X18250Y2510D03*
G54D19*
X9460Y43150D03*
G54D20*
X9460Y40610D03*
G54D20*
X9460Y38070D03*
G54D19*
X9460Y32990D03*
G54D20*
X9460Y30450D03*
G54D20*
X9460Y27910D03*
G54D20*
X21890Y31150D03*
G54D20*
X21890Y28610D03*
G54D20*
X21890Y26070D03*
G54D19*
X19350Y31150D03*
G54D20*
X19350Y28610D03*
G54D20*
X19350Y26070D03*
M02*
